<svg width="97" height="49" viewBox="0 0 97 49" fill="none" xmlns="http://www.w3.org/2000/svg">
<g id="Vector">
<path d="M67.4811 0C68.5788 0 69.5002 0.865324 69.5002 2.00306C69.5002 3.14081 68.5788 4.03017 67.4811 4.03017C66.3834 4.03017 65.454 3.16484 65.454 2.00306C65.454 0.841287 66.3754 0 67.4811 0ZM67.4811 3.73371C68.4105 3.73371 69.1316 2.98857 69.1316 2.00306C69.1316 1.01756 68.4105 0.296454 67.4811 0.296454C66.5517 0.296454 65.8145 1.04159 65.8145 2.00306C65.8145 2.96454 66.5356 3.73371 67.4811 3.73371ZM66.6959 0.841287H67.6013C68.1621 0.841287 68.4265 1.05762 68.4265 1.51432C68.4265 1.93897 68.1621 2.11524 67.8096 2.1553L68.4826 3.19689H68.09L67.449 2.18735H67.0644V3.19689H66.6959V0.833275V0.841287ZM67.0644 1.88288H67.449C67.7695 1.88288 68.066 1.86686 68.066 1.49829C68.066 1.18581 67.8016 1.13774 67.5532 1.13774H67.0725V1.88288H67.0644Z" fill="#134E49" fill-opacity="0.4"/>
<path d="M32.2993 0.168257V32.0731H64.2041V0.168257H32.2993ZM54.3971 10.2797C54.3971 9.23813 55.2384 8.39685 56.2799 8.39685H56.296C57.3376 8.39685 58.1869 9.23813 58.1869 10.2797C58.1869 11.3213 57.3376 12.1626 56.296 12.1626C56.0877 12.1626 55.8873 12.1225 55.6951 12.0584L46.8255 24.6217C46.6252 24.9101 46.2326 24.9822 45.9521 24.7899C45.6717 24.5896 45.6156 24.197 45.8159 23.9086L50.9037 15.2794L54.6935 11.2813C54.5092 10.9928 54.3971 10.6483 54.3971 10.2797ZM48.0193 13.4125C48.2757 13.2042 48.6683 13.2603 48.9087 13.5407L50.3188 15.0951L49.6218 16.2889L48.0033 14.3099C47.7629 14.0215 47.7709 13.6208 48.0273 13.4125H48.0193ZM34.719 23.8685V16.2889L37.2909 13.741H45.5195C46.0082 13.741 46.3447 14.1016 46.3447 14.5422C46.3447 14.9829 46.0162 15.3435 45.5355 15.3435H42.5469C42.1864 15.3435 41.8979 15.6319 41.8979 15.9925V18.957C41.8979 19.3176 42.1864 19.606 42.5469 19.606H46.2726V21.9536L45.1589 23.8365V24.7419H35.4881C35.0154 24.7419 34.719 24.3412 34.719 23.8685ZM50.7194 30.2302H38.9414C37.4271 30.2302 36.4576 29.1806 36.4576 27.8827C36.4576 26.5847 37.4271 25.5351 38.9414 25.5351H50.7194C52.2257 25.5351 53.1071 26.5847 53.1071 27.8827C53.1071 29.1806 52.2338 30.2302 50.7194 30.2302ZM59.6531 25.8876L56.0075 27.8666C55.7431 28.0189 55.5268 27.9387 55.3666 27.6663L53.8282 25.1425L55.1422 22.6907H55.1582L51.8091 18.6445L52.6344 17.4667L58.4192 24.1009H58.4112L60.4944 24.7579L59.6531 25.8876Z" fill="#134E49" fill-opacity="0.4"/>
<path d="M50.6313 27.1135H38.9334C38.4767 27.1135 38.1162 27.466 38.1162 27.8907C38.1162 28.3153 38.4847 28.6598 38.9334 28.6598H50.6313C51.08 28.6598 51.4486 28.3233 51.4486 27.8907C51.4486 27.458 51.08 27.1135 50.6313 27.1135Z" fill="#134E49" fill-opacity="0.4"/>
<path d="M56.2799 11.0169C56.6806 11.0169 57.0091 10.6884 57.0091 10.2877C57.0091 9.88713 56.6806 9.55862 56.2799 9.55862C55.8793 9.55862 55.5508 9.88713 55.5508 10.2877C55.5508 10.6884 55.8793 11.0169 56.2799 11.0169Z" fill="#134E49" fill-opacity="0.4"/>
<path d="M4.50474 45.8702L3.63942 48.0735H0.506622L5.20982 37.3852H8.71117L13.4144 48.0735H10.2896L9.42426 45.8702H4.50474ZM6.9645 39.6847L5.28994 43.9232H8.63906L6.9645 39.6847Z" fill="#134E49" fill-opacity="0.4"/>
<path d="M17.5968 45.8702L16.7314 48.0735H13.6067L18.3099 37.3852H21.8112L26.5144 48.0735H23.3896L22.5243 45.8702H17.5968ZM20.0565 39.6847L18.382 43.9232H21.7311L20.0565 39.6847Z" fill="#134E49" fill-opacity="0.4"/>
<path d="M27.7723 37.3852H35.5442C38.5088 37.3852 39.0055 39.196 39.0055 40.2856C39.0055 41.5916 38.4847 42.4249 37.2669 42.8576V42.8896C38.5408 43.0819 38.7331 44.7004 38.7331 45.75C38.7331 46.2708 38.7812 47.5287 39.2859 48.0735H36.1131C35.8407 47.5768 35.8327 47.1441 35.8327 46.0224C35.8327 44.5241 35.1917 44.1475 34.2943 44.1475H30.6888V48.0655H27.7884V37.3772H27.7723V37.3852ZM30.6728 42.1124H34.5187C35.1596 42.1124 35.9128 41.7519 35.9128 40.7503C35.9128 39.6847 35.0715 39.4203 34.3744 39.4203H30.6808V42.1124H30.6728Z" fill="#134E49" fill-opacity="0.4"/>
<path d="M48.1555 40.4779C47.9793 39.0838 46.6412 38.9396 45.4794 38.9396C44.3176 38.9396 43.5004 39.4764 43.5004 40.1975C43.5004 40.7664 43.9811 41.0788 44.7263 41.199L48.3638 41.7839C50.3108 42.0964 51.7931 42.8335 51.7931 44.7805C51.7931 46.7275 50.447 48.37 46.2406 48.37C43.6366 48.37 40.2554 48.0415 40.2234 44.7004H43.4844C43.5164 46.1666 44.9827 46.423 46.2406 46.423C47.6027 46.423 48.5321 46.0224 48.5321 45.093C48.5321 44.2677 47.8751 44.0434 46.7213 43.8671L44.0693 43.4585C42.2104 43.1781 40.4157 42.6172 40.4157 40.4379C40.4157 38.0582 42.3627 37.0887 45.7118 37.0887C47.9151 37.0887 51.1761 37.4653 51.3684 40.4859H48.1475H48.1555V40.4779Z" fill="#134E49" fill-opacity="0.4"/>
<path d="M53.2032 37.3852H56.1037V45.9503H62.6176V48.0735H53.2032V37.3852Z" fill="#134E49" fill-opacity="0.4"/>
<path d="M74.1232 37.3852V39.4203H67.0404V41.6397H73.7627V43.5867H67.0404V46.0384H74.1793V48.0735H64.132V37.3852H74.1232Z" fill="#134E49" fill-opacity="0.4"/>
<path d="M75.6296 37.3852H85.1802V39.4203H78.53V41.7519H84.7555V43.787H78.53V48.0655H75.6296V37.3772V37.3852Z" fill="#134E49" fill-opacity="0.4"/>
<path d="M86.6945 37.3852H96.2451V39.4203H89.5949V41.7519H95.8204V43.787H89.5949V48.0655H86.6945V37.3772V37.3852Z" fill="#134E49" fill-opacity="0.4"/>
</g>
</svg>
