<svg width="121" height="40" viewBox="0 0 121 40" fill="none" xmlns="http://www.w3.org/2000/svg">
<g id="Vector">
<path d="M68.3226 31.5973L64.7112 25.5014C67.1328 24.8554 68.1485 23.0027 68.1485 21.1716C68.1485 18.6512 66.3319 16.5614 62.6987 16.5614H57.0327V31.5684L60.0608 31.5814V25.7384H61.4886L64.82 31.5973H68.3241H68.3226ZM62.5913 23.4767H60.0608V19.0616H62.5913C64.2788 19.0616 65.0347 19.9013 65.0347 21.2366C65.0347 22.5937 64.2773 23.4767 62.5913 23.4767Z" fill="#134E49" fill-opacity="0.4"/>
<path d="M5.67718 16.5397L0.249115 31.5973H3.42818L4.42354 28.7329H10.4349L11.4303 31.5973H14.6311L9.20302 16.5412H5.67863L5.67718 16.5397ZM5.24479 26.3194L7.42849 20.0299L9.61365 26.3194H5.24479Z" fill="#134E49" fill-opacity="0.4"/>
<path d="M18.9521 20.6123C18.9521 19.3839 19.8386 18.8029 21.0284 18.8463C22.327 18.8679 23.1265 19.644 23.1918 20.634H26.5218C26.3273 17.9199 24.2075 16.3475 21.1155 16.3475C18.0234 16.3475 15.7948 17.9849 15.7948 20.699C15.773 26.1489 23.5589 24.1877 23.5589 27.4409C23.5589 28.5175 22.7159 29.2719 21.2881 29.2719C19.8604 29.2719 19.0826 28.4756 18.9956 27.2689H15.7512C15.7948 30.1116 18.2164 31.749 21.352 31.749C24.7907 31.749 26.6944 29.6159 26.6944 27.2472C26.6944 21.9491 18.9521 23.6284 18.9521 20.6123Z" fill="#134E49" fill-opacity="0.4"/>
<path d="M32.1225 20.6123C32.1225 19.3839 33.009 18.8029 34.1988 18.8463C35.4974 18.8679 36.2969 19.644 36.3622 20.634H39.6922C39.4977 17.9199 37.3779 16.3475 34.2859 16.3475C31.1939 16.3475 28.9652 17.9849 28.9652 20.699C28.9434 26.1489 36.7293 24.1877 36.7293 27.4409C36.7293 28.5175 35.8848 29.2719 34.4585 29.2719C33.0322 29.2719 32.2531 28.4756 32.166 27.2689H28.9216C28.9652 30.1116 31.3868 31.749 34.5224 31.749C37.9612 31.749 39.8648 29.6159 39.8634 27.2472C39.8634 21.9491 32.121 23.6284 32.121 20.6123H32.1225Z" fill="#134E49" fill-opacity="0.4"/>
<path d="M51.0634 25.867C51.0634 27.9351 49.9389 29.0118 47.9931 29.0118C46.0474 29.0118 44.9432 27.9337 44.9432 25.867V16.5614H41.9165V25.8454C41.9165 29.8096 44.6414 31.7476 47.9496 31.7476C51.2578 31.7476 54.1133 29.8096 54.1133 25.8454V16.5614H51.0634V25.867Z" fill="#134E49" fill-opacity="0.4"/>
<path d="M79.6547 29.1419H73.9233V25.156H79.0061V22.7656H73.9233V18.9951H79.6547V16.5397H70.8966V31.5973H79.6547V29.1419Z" fill="#134E49" fill-opacity="0.4"/>
<path d="M87.6785 16.5614H82.4013V31.5973H87.6785C92.5015 31.5973 95.637 28.6462 95.637 24.101C95.637 19.5559 92.5015 16.5614 87.6785 16.5614ZM87.5711 29.0335H85.4295V19.1035H87.5711C90.7502 19.1035 92.545 20.9779 92.545 24.101C92.545 27.2241 90.7502 29.0335 87.5711 29.0335Z" fill="#134E49" fill-opacity="0.4"/>
<path d="M119.529 5.93194C119.529 5.57498 119.267 5.34953 118.874 5.34953H118.036V7.22106H118.49V6.52448H118.638L119.057 7.22106L119.607 7.21239L119.118 6.48979C119.37 6.41175 119.529 6.21231 119.529 5.93339V5.93194ZM118.847 6.14872H118.488V5.75707H118.847C118.969 5.75707 119.075 5.8091 119.075 5.94784C119.075 6.08658 118.97 6.14872 118.847 6.14872Z" fill="#134E49" fill-opacity="0.4"/>
<path d="M118.742 4.52143C117.702 4.52143 116.968 5.27004 116.968 6.29613C116.968 7.32223 117.702 8.07951 118.742 8.07951C119.783 8.07951 120.507 7.32223 120.507 6.29613C120.507 5.27004 119.772 4.52143 118.742 4.52143ZM118.742 7.73266C117.886 7.73266 117.345 7.14158 117.345 6.29758C117.345 5.45358 117.886 4.86249 118.742 4.86249C119.59 4.86249 120.15 5.45503 120.15 6.29758C120.15 7.14013 119.591 7.73266 118.742 7.73266Z" fill="#134E49" fill-opacity="0.4"/>
<path d="M58.044 35.2088C58.044 34.5758 58.5446 34.2463 59.1801 34.2637C59.9012 34.2723 60.2741 34.7189 60.3249 35.1163H61.1737C61.0794 34.2218 60.3423 33.6047 59.2149 33.6047C58.0875 33.6047 57.2561 34.2637 57.2561 35.2348C57.2561 37.4214 60.4526 36.4083 60.4526 37.9952C60.4526 38.553 60.0115 38.975 59.2657 38.975C58.443 38.975 58.0962 38.4851 58.0454 37.9952H57.2227C57.2401 38.9664 58.0788 39.6254 59.2657 39.6254C60.5454 39.6254 61.2332 38.7973 61.2332 37.9619C61.2332 35.784 58.0454 36.7292 58.0454 35.2088H58.044Z" fill="#134E49" fill-opacity="0.4"/>
<path d="M64.2149 36.6613L62.7567 33.6798H61.9006L63.8333 37.3448V39.5647H64.6052V37.3448L66.5292 33.6798H65.6732L64.2149 36.6613Z" fill="#134E49" fill-opacity="0.4"/>
<path d="M68.0208 35.2088C68.0208 34.5758 68.5214 34.2463 69.1569 34.2637C69.8781 34.2723 70.251 34.7189 70.3017 35.1163H71.1491C71.0562 34.2218 70.3177 33.6047 69.1903 33.6047C68.0629 33.6047 67.2315 34.2637 67.2315 35.2348C67.2315 37.4214 70.428 36.4083 70.428 37.9952C70.428 38.553 69.9883 38.975 69.2411 38.975C68.4184 38.975 68.0716 38.4851 68.0208 37.9952H67.1981C67.2155 38.9664 68.0542 39.6254 69.2411 39.6254C70.5208 39.6254 71.2071 38.7973 71.2071 37.9619C71.2071 35.784 68.0194 36.7292 68.0194 35.2088H68.0208Z" fill="#134E49" fill-opacity="0.4"/>
<path d="M72.0052 34.3041H73.6245V39.5647H74.3964V34.3041H76.0069V33.6798H72.0052V34.3041Z" fill="#134E49" fill-opacity="0.4"/>
<path d="M76.9805 39.5647H80.1596V38.9317H77.7524V36.9055H79.9057V36.2725H77.7524V34.3041H80.1596V33.6711H76.9805V39.5647Z" fill="#134E49" fill-opacity="0.4"/>
<path d="M84.3558 38.5516L82.1866 33.7217H81.3552V39.5647H82.1271V35.2002L84.0859 39.5647H84.6271L86.5772 35.2088V39.5647H87.3491V33.7217H86.5264L84.3558 38.5516Z" fill="#134E49" fill-opacity="0.4"/>
<path d="M89.3326 35.2088C89.3326 34.5758 89.8332 34.2463 90.4687 34.2637C91.1898 34.2723 91.5627 34.7189 91.6135 35.1163H92.4609C92.368 34.2218 91.6309 33.6047 90.5021 33.6047C89.3732 33.6047 88.5433 34.2637 88.5433 35.2348C88.5433 37.4214 91.7398 36.4083 91.7398 37.9952C91.7398 38.553 91.2987 38.975 90.5529 38.975C89.7302 38.975 89.3819 38.4851 89.3312 37.9952H88.5085C88.5259 38.9664 89.3645 39.6254 90.5514 39.6254C91.8312 39.6254 92.5175 38.7973 92.5175 37.9619C92.5175 35.784 89.3297 36.7292 89.3297 35.2088H89.3326Z" fill="#134E49" fill-opacity="0.4"/>
<path d="M105.367 0.745117C98.9453 0.745117 93.7406 5.9305 93.7406 12.3255C93.7406 18.7205 98.9453 23.9059 105.367 23.9059C111.789 23.9059 116.994 18.7205 116.994 12.3255C116.994 5.9305 111.788 0.745117 105.367 0.745117ZM103.424 21.582V19.5587C102.963 19.4561 102.513 19.316 102.081 19.1266C101.149 18.7191 100.337 18.167 99.6417 17.4733C98.9482 16.7796 98.4026 15.9674 98.0036 15.0382C97.606 14.1089 97.4072 13.1233 97.4072 12.0813C97.4072 11.0393 97.6075 10.0248 98.0079 9.09549C98.4069 8.16622 98.9554 7.35402 99.6533 6.66033C100.35 5.96663 101.165 5.4189 102.098 5.02147C103.031 4.62259 104.031 4.42315 105.097 4.42315C106.164 4.42315 107.162 4.62259 108.095 5.02147C109.028 5.42034 109.843 5.96663 110.54 6.66033C111.236 7.35402 111.785 8.16622 112.185 9.09549C112.584 10.0248 112.786 11.0205 112.786 12.0813V14.5338L111.189 12.9426L109.601 14.5237V12.0798C109.601 11.4454 109.484 10.8543 109.246 10.3022C109.009 9.75161 108.686 9.2718 108.274 8.86281C107.861 8.45526 107.384 8.13299 106.839 7.89742C106.294 7.66329 105.713 7.54479 105.096 7.54479C104.479 7.54479 103.897 7.66329 103.352 7.89742C102.806 8.13299 102.329 8.45526 101.917 8.86426C101.505 9.27325 101.183 9.7545 100.946 10.3066C100.71 10.8586 100.592 11.4512 100.592 12.0856C100.592 12.7201 100.71 13.2765 100.945 13.8199C101.18 14.3618 101.502 14.8387 101.911 15.2477C102.32 15.6567 102.796 15.979 103.339 16.2145C103.366 16.2276 103.394 16.2362 103.423 16.2478V14.3184L107.069 17.9502L103.423 21.582H103.424ZM107.542 17.7363L111.189 14.1046L114.835 17.7363H107.542Z" fill="#134E49" fill-opacity="0.4"/>
</g>
</svg>
