<svg width="28" height="28" viewBox="0 0 28 28" fill="none" xmlns="http://www.w3.org/2000/svg">
<path id="Vector" d="M12.1334 20.1332L21.5334 10.7332L19.6667 8.8665L12.1334 16.3998L8.33336 12.5998L6.46669 14.4665L12.1334 20.1332ZM14 27.3332C12.1556 27.3332 10.4222 26.9829 8.80002 26.2825C7.1778 25.5821 5.76669 24.6323 4.56669 23.4332C3.36669 22.2341 2.41691 20.8229 1.71736 19.1998C1.0178 17.5767 0.667578 15.8434 0.666689 13.9998C0.6658 12.1563 1.01602 10.4229 1.71736 8.79984C2.41869 7.17673 3.36847 5.76562 4.56669 4.5665C5.76491 3.36739 7.17602 2.41762 8.80002 1.71717C10.424 1.01673 12.1574 0.666504 14 0.666504C15.8427 0.666504 17.576 1.01673 19.2 1.71717C20.824 2.41762 22.2351 3.36739 23.4334 4.5665C24.6316 5.76562 25.5818 7.17673 26.284 8.79984C26.9862 10.4229 27.336 12.1563 27.3334 13.9998C27.3307 15.8434 26.9805 17.5767 26.2827 19.1998C25.5849 20.8229 24.6351 22.2341 23.4334 23.4332C22.2316 24.6323 20.8205 25.5825 19.2 26.2838C17.5796 26.9852 15.8462 27.3349 14 27.3332Z" fill="#00C6B7"/>
</svg>
