<svg width="163" height="29" viewBox="0 0 163 29" fill="none" xmlns="http://www.w3.org/2000/svg">
<g id="Vector">
<path d="M14.1514 12.6405L14.5413 12.7231L13.1701 17.0583H0.754913V16.6222H1.35788C2.0359 16.6222 2.52082 16.4026 2.812 15.9629C2.97727 15.7113 3.06021 15.1305 3.06021 14.2191V3.91048C3.06021 2.9134 2.95003 2.28909 2.72967 2.03755C2.42214 1.69192 1.96507 1.51881 1.35788 1.51881H0.754913V1.0833H8.01466V1.51881C7.16349 1.51097 6.56658 1.58999 6.22333 1.75466C5.88008 1.91933 5.64579 2.12744 5.51987 2.37897C5.39335 2.6305 5.3304 3.23127 5.3304 4.1813V14.2191C5.3304 14.8711 5.39335 15.3187 5.51987 15.5624C5.61431 15.727 5.76021 15.8489 5.95757 15.9273C6.15432 16.0057 6.76939 16.0449 7.80157 16.0449H8.97237C10.2019 16.0449 11.0652 15.9544 11.5616 15.7741C12.0586 15.5937 12.5114 15.2734 12.9213 14.8138C13.3311 14.3548 13.7416 13.6303 14.1514 12.6405ZM24.9284 11.7098H18.7208L17.633 14.2311C17.3648 14.8512 17.231 15.3144 17.231 15.6209C17.231 15.8646 17.3472 16.0787 17.5797 16.2633C17.8122 16.4478 18.3146 16.5673 19.0871 16.6222V17.0583H14.0382V16.6222C14.7084 16.5045 15.1424 16.3513 15.3392 16.1631C15.7411 15.7861 16.1867 15.0201 16.6753 13.8656L22.315 0.717773H22.7291L28.3101 14.0067C28.7593 15.075 29.1673 15.7687 29.5336 16.0865C29.8998 16.4044 30.4102 16.583 31.0646 16.6222V17.0583H24.739V16.6222C25.3776 16.5908 25.8093 16.4846 26.0339 16.3043C26.2585 16.1239 26.3711 15.9038 26.3711 15.6444C26.3711 15.2988 26.2131 14.7529 25.8977 14.0067L24.9284 11.7098ZM24.5973 10.8382L21.8779 4.38156L19.0871 10.8382H24.5973ZM42.8883 0.717773L43.2552 6.14893H42.8883C42.3998 4.52332 41.7018 3.35312 40.7955 2.63834C39.8892 1.92355 38.8014 1.56586 37.5325 1.56586C36.4682 1.56586 35.5063 1.83488 34.6472 2.37293C33.7882 2.91098 33.112 3.76933 32.6192 4.94736C32.127 6.1254 31.8806 7.59056 31.8806 9.34163C31.8806 10.7869 32.1131 12.0397 32.578 13.1001C33.043 14.1599 33.7428 14.973 34.6769 15.5382C35.611 16.104 36.6771 16.3869 37.8751 16.3869C38.9158 16.3869 39.8342 16.1649 40.6302 15.721C41.4263 15.2776 42.3011 14.3958 43.2552 13.076L43.6214 13.3118C42.8175 14.7336 41.8797 15.7741 40.8076 16.434C39.7355 17.0933 38.4624 17.4232 36.9883 17.4232C34.3318 17.4232 32.2747 16.4418 30.8164 14.4784C29.7285 13.0175 29.1849 11.2972 29.1849 9.3181C29.1849 7.72386 29.5433 6.2587 30.2606 4.92384C30.978 3.58897 31.9648 2.55389 33.2222 1.8192C34.4795 1.08511 35.8532 0.717773 37.343 0.717773C38.5017 0.717773 39.6447 1.00067 40.7719 1.56586C41.103 1.73897 41.3391 1.82524 41.4814 1.82524C41.6939 1.82524 41.8791 1.75044 42.0371 1.60145C42.2424 1.38973 42.3883 1.09477 42.4748 0.717773H42.8883ZM48.9143 1.95492V8.26975H52.4382C53.3523 8.26975 53.9632 8.13223 54.2707 7.85717C54.6805 7.49586 54.9094 6.86009 54.9566 5.94867H55.3937V11.5095H54.9566C54.8458 10.732 54.7356 10.2331 54.6255 10.013C54.4832 9.73853 54.2507 9.52259 53.9281 9.36516C53.6048 9.20772 53.1084 9.1293 52.4382 9.1293H48.9143V14.3958C48.9143 15.1027 48.9458 15.5328 49.0093 15.686C49.0723 15.8386 49.1825 15.9605 49.3399 16.051C49.4979 16.1414 49.7975 16.1867 50.2389 16.1867H52.9582C53.8645 16.1867 54.5231 16.1239 54.933 15.9979C55.3428 15.8724 55.7369 15.6251 56.1153 15.2559C56.6038 14.7692 57.1045 14.0345 57.6166 13.0525H58.0901L56.7062 17.0583H44.3503V16.6222H44.9182C45.2965 16.6222 45.6549 16.5317 45.9939 16.3513C46.2464 16.2259 46.4177 16.0377 46.5085 15.7861C46.5987 15.5346 46.6441 15.0201 46.6441 14.2426V3.86343C46.6441 2.85006 46.5418 2.22575 46.3366 1.9905C46.0526 1.67624 45.5798 1.51881 44.9182 1.51881H44.3503V1.0833H56.7062L56.8835 4.58183H56.4228C56.257 3.74158 56.0735 3.16432 55.8725 2.85006C55.6716 2.53579 55.3743 2.29633 54.9802 2.13166C54.6648 2.01403 54.1091 1.95492 53.313 1.95492H48.9143Z" fill="#134E49" fill-opacity="0.4"/>
<path d="M82.0329 2.01343V8.29268H84.9533C85.6235 8.29268 86.1138 8.14549 86.425 7.85113C86.7367 7.55617 86.9438 6.97288 87.0461 6.10127H87.4838V11.5089H87.0461C87.0382 10.8882 86.9571 10.4328 86.8033 10.1427C86.6502 9.85193 86.4371 9.63417 86.1653 9.4888C85.8935 9.34343 85.4891 9.27045 84.9533 9.27045H82.0329V14.2896C82.0329 15.0985 82.0844 15.6323 82.1867 15.8917C82.2654 16.0877 82.4307 16.2566 82.6831 16.3984C83.03 16.5866 83.3926 16.6807 83.771 16.6807H84.3503V17.1168H77.469V16.6807H78.0362C78.6985 16.6807 79.1792 16.4883 79.4788 16.1034C79.6683 15.8519 79.7627 15.2475 79.7627 14.2896V3.96899C79.7627 3.1601 79.7113 2.62567 79.609 2.3669C79.5297 2.17086 79.368 2.00197 79.1241 1.86022C78.785 1.67142 78.4224 1.57732 78.0362 1.57732H77.469V1.14181H89.3992L89.5524 4.6524H89.1389C88.9337 3.90625 88.6952 3.35794 88.4233 3.0087C88.1515 2.65945 87.8161 2.4061 87.4184 2.24927C87.0207 2.09184 86.4038 2.01343 85.5678 2.01343H82.0329ZM97.4048 11.7683H91.1972L90.1093 14.2896C89.8411 14.9097 89.7074 15.373 89.7074 15.6794C89.7074 15.9231 89.8236 16.1372 90.0561 16.3218C90.2885 16.5064 90.791 16.6258 91.5641 16.6807V17.1168H86.5152V16.6807C87.1853 16.5631 87.6188 16.4098 87.8155 16.2216C88.2175 15.8447 88.6631 15.0786 89.1516 13.9241L94.792 0.776283H95.2054L100.786 14.0652C101.236 15.1335 101.644 15.8272 102.01 16.145C102.377 16.4629 102.887 16.6415 103.542 16.6807V17.1168H97.2153V16.6807C97.854 16.6493 98.2856 16.5432 98.5102 16.3628C98.7348 16.1824 98.8474 15.9623 98.8474 15.7029C98.8474 15.3573 98.69 14.8114 98.3746 14.0652L97.4048 11.7683ZM97.0736 10.8967L94.3543 4.44007L91.5641 10.8967H97.0736ZM115.46 1.14181V1.57732C114.893 1.67926 114.463 1.86022 114.171 2.11959C113.754 2.50443 113.383 3.09314 113.06 3.88634L107.467 17.4817H107.03L101.023 3.70961C100.716 3.00327 100.5 2.57139 100.373 2.41395C100.176 2.17086 99.9335 1.98025 99.6459 1.84272C99.3584 1.7052 98.9697 1.61652 98.4812 1.57732V1.14181H105.031V1.57732C104.29 1.64789 103.81 1.77396 103.589 1.95431C103.368 2.13527 103.258 2.3669 103.258 2.64979C103.258 3.04247 103.439 3.65472 103.802 4.48773L107.881 13.8535L111.665 4.60535C112.035 3.69393 112.22 3.06178 112.22 2.7083C112.22 2.4809 112.106 2.26254 111.878 2.05444C111.649 1.84634 111.263 1.69917 110.719 1.61291C110.68 1.60507 110.612 1.593 110.518 1.57732V1.14181H115.46ZM122.19 0.776283C124.271 0.776283 126.074 1.56344 127.599 3.13838C129.125 4.71332 129.888 6.67852 129.888 9.0352C129.888 11.4618 129.119 13.4765 127.582 15.0786C126.045 16.6807 124.184 17.4817 122.001 17.4817C119.794 17.4817 117.939 16.7006 116.438 15.1377C114.936 13.5748 114.185 11.5523 114.185 9.07019C114.185 6.53377 115.052 4.4642 116.787 2.86151C118.292 1.47115 120.093 0.776283 122.19 0.776283ZM121.966 1.63643C120.531 1.63643 119.38 2.16664 118.513 3.22705C117.433 4.54624 116.893 6.47827 116.893 9.02314C116.893 11.6307 117.453 13.6376 118.572 15.0436C119.431 16.1119 120.566 16.6457 121.977 16.6457C123.483 16.6457 124.726 16.0606 125.708 14.8904C126.689 13.7196 127.18 11.8738 127.18 9.35309C127.18 6.62002 126.64 4.58182 125.56 3.23851C124.693 2.17025 123.495 1.63643 121.966 1.63643ZM140.557 1.57732V1.14181H146.232V1.57732H145.63C144.999 1.57732 144.514 1.84031 144.175 2.3669C144.01 2.60999 143.927 3.17578 143.927 4.06308V10.5432C143.927 12.1453 143.767 13.3878 143.448 14.2715C143.129 15.1552 142.502 15.9128 141.568 16.5456C140.634 17.1777 139.363 17.4938 137.755 17.4938C136.005 17.4938 134.676 17.1916 133.77 16.5866C132.864 15.9816 132.222 15.1691 131.843 14.1479C131.591 13.4488 131.465 12.1374 131.465 10.2132V3.96899C131.465 2.98759 131.329 2.34338 131.057 2.03696C130.785 1.73053 130.345 1.57732 129.738 1.57732H129.135V1.14181H136.064V1.57732H135.449C134.787 1.57732 134.314 1.78542 134.03 2.20162C133.834 2.48452 133.735 3.07385 133.735 3.96899V10.9316C133.735 11.5523 133.792 12.2629 133.906 13.0639C134.021 13.865 134.227 14.4893 134.527 14.9375C134.826 15.385 135.258 15.7542 135.822 16.0449C136.385 16.335 137.077 16.4804 137.897 16.4804C138.945 16.4804 139.883 16.253 140.711 15.7976C141.538 15.3422 142.104 14.7589 142.408 14.0477C142.711 13.3372 142.863 12.1338 142.863 10.437V3.96899C142.863 2.97191 142.753 2.3476 142.532 2.09606C142.224 1.75043 141.767 1.57732 141.16 1.57732H140.557ZM162.249 17.1168H157.969L152.542 9.64744C152.14 9.66313 151.813 9.67097 151.56 9.67097C151.458 9.67097 151.347 9.66916 151.229 9.66494C151.111 9.66132 150.989 9.65528 150.863 9.64744V14.2896C150.863 15.2952 150.973 15.9195 151.194 16.1625C151.494 16.5082 151.943 16.6807 152.542 16.6807H153.168V17.1168H146.299V16.6807H146.902C147.579 16.6807 148.064 16.4611 148.356 16.0214C148.521 15.7777 148.604 15.2004 148.604 14.2896V3.96899C148.604 2.96346 148.494 2.33915 148.273 2.09606C147.966 1.75043 147.509 1.57732 146.902 1.57732H146.299V1.14181H152.14C153.843 1.14181 155.098 1.26547 155.906 1.51278C156.714 1.76009 157.399 2.2155 157.963 2.87901C158.527 3.54313 158.809 4.33452 158.809 5.25318C158.809 6.23458 158.487 7.08689 157.845 7.80951C157.203 8.53214 156.207 9.04244 154.859 9.34102L158.17 13.9241C158.927 14.9767 159.577 15.6758 160.121 16.0214C160.665 16.367 161.374 16.5866 162.249 16.6807V17.1168ZM150.863 8.90552C151.013 8.90552 151.143 8.90733 151.253 8.91095C151.364 8.91517 151.454 8.91698 151.525 8.91698C153.054 8.91698 154.207 8.58703 154.983 7.92774C155.76 7.26784 156.148 6.4276 156.148 5.40639C156.148 4.40871 155.834 3.59802 155.208 2.97371C154.581 2.34941 153.752 2.03696 152.719 2.03696C152.262 2.03696 151.643 2.11175 150.863 2.26074V8.90552Z" fill="#134E49" fill-opacity="0.4"/>
<path d="M70.7861 7.20693H74.6721V7.54773C74.1353 7.59076 73.739 7.70918 73.4831 7.90301C73.2272 8.09643 72.8279 8.68174 72.2851 9.65891C71.7422 10.6361 71.1316 11.5487 70.4532 12.3968C71.0021 13.0362 71.4924 13.4834 71.9243 13.7383C72.3561 13.9933 72.791 14.1207 73.2289 14.1207C73.6542 14.1207 74.0151 14.0055 74.3113 13.7751C74.6071 13.5447 74.8168 13.2051 74.9403 12.7563L75.2829 13.0054C75.0545 13.872 74.6874 14.5112 74.1817 14.923C73.676 15.3348 73.087 15.5406 72.4146 15.5406C71.9089 15.5406 71.3954 15.4039 70.8739 15.1305C70.3529 14.857 69.7838 14.3946 69.1667 13.7431C68.4019 14.4191 67.7128 14.8876 67.0994 15.1486C66.4855 15.41 65.8301 15.5406 65.1331 15.5406C64.1152 15.5406 63.3072 15.2702 62.7091 14.7293C62.1106 14.1885 61.8113 13.5431 61.8113 12.7931C61.8113 12.0496 62.0797 11.3074 62.6165 10.5667C63.1533 9.82639 64.1616 9.05974 65.6416 8.26674C65.3518 7.62776 65.1545 7.10398 65.0495 6.69541C64.945 6.28645 64.8927 5.89458 64.8927 5.5198C64.8927 4.46903 65.2812 3.66699 66.0581 3.11366C66.6627 2.68338 67.3504 2.46824 68.1212 2.46824C68.8554 2.46824 69.4537 2.68499 69.9162 3.11848C70.3791 3.55157 70.6106 4.0846 70.6106 4.71755C70.6106 5.369 70.387 5.94062 69.9398 6.43243C69.4922 6.92423 68.701 7.46207 67.5661 8.04596C68.3495 9.43492 69.1667 10.7071 70.0179 11.8624C71.1036 10.5715 71.6464 9.48378 71.6464 8.5991C71.6464 8.316 71.554 8.06386 71.3691 7.84269C71.2335 7.67702 71.0392 7.5787 70.7861 7.54773V7.20693ZM67.2519 7.4464C68.0167 7.08368 68.5888 6.67189 68.9682 6.21105C69.3475 5.75021 69.5372 5.2371 69.5372 4.6717C69.5372 4.22896 69.4 3.86322 69.1256 3.57449C68.8511 3.28576 68.5103 3.1414 68.1031 3.1414C67.5663 3.1414 67.1607 3.32739 66.8863 3.69935C66.6118 4.07092 66.4746 4.43505 66.4746 4.79174C66.4746 5.09253 66.5271 5.42891 66.632 5.80088C66.7369 6.17285 66.9436 6.72136 67.2519 7.4464ZM68.6861 13.2081C67.8716 12.1018 67.3072 11.2938 66.9928 10.7839C66.678 10.2736 66.3325 9.6404 65.9564 8.8844C65.2162 9.30865 64.6595 9.77573 64.2862 10.2856C63.9132 10.7959 63.7268 11.3491 63.7268 11.945C63.7268 12.6029 63.9395 13.1808 64.3648 13.6786C64.7906 14.1764 65.3643 14.4253 66.086 14.4253C66.4746 14.4253 66.8493 14.3483 67.2101 14.1943C67.571 14.0407 68.0629 13.712 68.6861 13.2081Z" fill="#134E49" fill-opacity="0.4"/>
<path d="M56.7372 22.972H60.2232V23.4631H57.3015V25.392H60.116V25.8831H57.3015V28.0683H60.2446V28.5594H56.7372V22.972Z" fill="#134E49" fill-opacity="0.4"/>
<path d="M64.3743 23.3706V24.0895C64.2505 23.9851 64.1243 23.8925 63.9957 23.8119C63.8719 23.7312 63.7481 23.6648 63.6242 23.6126C63.3385 23.4797 63.048 23.4133 62.7527 23.4133C62.3813 23.4133 62.0741 23.5058 61.8312 23.6909C61.5836 23.8807 61.4597 24.1061 61.4597 24.3671C61.4597 24.7467 61.7407 25.0314 62.3027 25.2212C62.5646 25.3113 62.8242 25.3991 63.0813 25.4845C63.3433 25.5652 63.6076 25.6482 63.8742 25.7337C64.441 26.0041 64.7243 26.4075 64.7243 26.9437C64.7243 27.4656 64.5219 27.8856 64.1171 28.2035C63.7314 28.5024 63.2528 28.6519 62.6813 28.6519C62.3003 28.6519 61.9336 28.5784 61.5812 28.4313C61.3764 28.3506 61.1335 28.2177 60.8525 28.0327V27.3067C61.2192 27.6341 61.5907 27.8642 61.9669 27.9971C62.0908 28.0445 62.2122 28.0777 62.3313 28.0967C62.4503 28.1157 62.5694 28.1252 62.6884 28.1252C63.0694 28.1252 63.3909 28.0303 63.6528 27.8405C63.9433 27.6317 64.0886 27.3589 64.0886 27.022C64.0886 26.6139 63.8123 26.3031 63.2599 26.0895C62.9932 26.0089 62.7313 25.9258 62.4741 25.8404C62.217 25.755 61.9598 25.672 61.7026 25.5913C61.1454 25.3351 60.8668 24.9412 60.8668 24.4098C60.8668 23.9637 61.043 23.6007 61.3955 23.3208C61.7574 23.0313 62.2098 22.8866 62.7527 22.8866C63.0861 22.8866 63.4194 22.9483 63.7528 23.0716C63.9243 23.1286 64.1314 23.2282 64.3743 23.3706Z" fill="#134E49" fill-opacity="0.4"/>
<path d="M65.2589 22.9791H69.5807V23.4702H67.702V28.5594H67.1448V23.4702H65.2589V22.9791Z" fill="#134E49" fill-opacity="0.4"/>
<path d="M70.8175 28.5807C70.7032 28.5807 70.6056 28.5333 70.5246 28.4384C70.4437 28.3435 70.4032 28.2272 70.4032 28.0896C70.4032 27.9473 70.4437 27.8286 70.5246 27.7337C70.6104 27.6341 70.708 27.5843 70.8175 27.5843C70.9223 27.5843 71.0152 27.6293 71.0961 27.7195C71.1818 27.8049 71.2247 27.9235 71.2247 28.0754C71.2247 28.2177 71.1842 28.3387 71.1033 28.4384C71.0223 28.5333 70.9271 28.5807 70.8175 28.5807Z" fill="#134E49" fill-opacity="0.4"/>
<path d="M75.7754 28.0825H78.9471V28.5594H75.2754V28.3316C75.2754 27.729 75.5325 27.188 76.0468 26.7088C76.2897 26.538 76.5302 26.3671 76.7683 26.1963C77.0065 26.0255 77.247 25.8523 77.4898 25.6767C78.0089 25.3018 78.2685 24.9294 78.2685 24.5592C78.2685 24.265 78.1494 24.0349 77.9113 23.8688C77.8018 23.7882 77.6827 23.7288 77.5541 23.6909C77.4255 23.6529 77.2851 23.6339 77.1327 23.6339C76.9088 23.6339 76.6945 23.6624 76.4897 23.7194C76.1802 23.8143 75.8611 23.978 75.5325 24.2105V23.6268C75.8611 23.4607 76.1516 23.3421 76.404 23.2709C76.6612 23.195 76.9041 23.1571 77.1327 23.1571C77.6137 23.1571 78.0185 23.2804 78.3471 23.5272C78.6709 23.7692 78.8328 24.1037 78.8328 24.5308C78.8328 24.9958 78.5828 25.4347 78.0827 25.8475C77.8446 26.0136 77.6065 26.1773 77.3684 26.3387C77.135 26.4952 76.8993 26.6566 76.6612 26.8227C76.1278 27.2213 75.8325 27.6412 75.7754 28.0825Z" fill="#134E49" fill-opacity="0.4"/>
<path d="M81.888 28.6519C81.2832 28.6519 80.8022 28.4075 80.445 27.9188C80.0926 27.4348 79.9164 26.7633 79.9164 25.9045C79.9164 25.0409 80.1069 24.3623 80.4879 23.8688C80.8451 23.3943 81.3094 23.1571 81.8809 23.1571C82.4809 23.1571 82.95 23.4109 83.2881 23.9186C83.6405 24.4216 83.8168 25.0812 83.8168 25.8974C83.8168 26.7467 83.6334 27.4182 83.2667 27.9117C82.9048 28.4052 82.4452 28.6519 81.888 28.6519ZM81.8309 28.175C82.3404 28.175 82.7214 27.9354 82.9738 27.4561C83.1691 27.0528 83.2667 26.5308 83.2667 25.8902C83.2667 25.2117 83.1548 24.6707 82.931 24.2674C82.6786 23.8451 82.3261 23.6339 81.8737 23.6339C81.3975 23.6339 81.0379 23.8593 80.795 24.3101C80.5807 24.7087 80.4736 25.2449 80.4736 25.9187C80.4736 26.583 80.5807 27.1145 80.795 27.5131C81.0379 27.9544 81.3832 28.175 81.8309 28.175Z" fill="#134E49" fill-opacity="0.4"/>
<path d="M86.7434 28.6519C86.1385 28.6519 85.6576 28.4075 85.3004 27.9188C84.948 27.4348 84.7718 26.7633 84.7718 25.9045C84.7718 25.0409 84.9622 24.3623 85.3432 23.8688C85.7004 23.3943 86.1647 23.1571 86.7362 23.1571C87.3363 23.1571 87.8054 23.4109 88.1435 23.9186C88.4959 24.4216 88.6721 25.0812 88.6721 25.8974C88.6721 26.7467 88.4888 27.4182 88.1221 27.9117C87.7601 28.4052 87.3006 28.6519 86.7434 28.6519ZM86.6862 28.175C87.1958 28.175 87.5768 27.9354 87.8292 27.4561C88.0244 27.0528 88.1221 26.5308 88.1221 25.8902C88.1221 25.2117 88.0101 24.6707 87.7863 24.2674C87.5339 23.8451 87.1815 23.6339 86.7291 23.6339C86.2528 23.6339 85.8933 23.8593 85.6504 24.3101C85.4361 24.7087 85.3289 25.2449 85.3289 25.9187C85.3289 26.583 85.4361 27.1145 85.6504 27.5131C85.8933 27.9544 86.2386 28.175 86.6862 28.175Z" fill="#134E49" fill-opacity="0.4"/>
<path d="M90.3415 28.0825H93.5132V28.5594H89.8414V28.3316C89.8414 27.729 90.0986 27.188 90.6129 26.7088C90.8558 26.538 91.0963 26.3671 91.3344 26.1963C91.5725 26.0255 91.813 25.8523 92.0559 25.6767C92.575 25.3018 92.8345 24.9294 92.8345 24.5592C92.8345 24.265 92.7155 24.0349 92.4774 23.8688C92.3678 23.7882 92.2488 23.7288 92.1202 23.6909C91.9916 23.6529 91.8511 23.6339 91.6987 23.6339C91.4749 23.6339 91.2606 23.6624 91.0558 23.7194C90.7463 23.8143 90.4272 23.978 90.0986 24.2105V23.6268C90.4272 23.4607 90.7177 23.3421 90.9701 23.2709C91.2273 23.195 91.4701 23.1571 91.6987 23.1571C92.1797 23.1571 92.5845 23.2804 92.9131 23.5272C93.237 23.7692 93.3989 24.1037 93.3989 24.5308C93.3989 24.9958 93.1489 25.4347 92.6488 25.8475C92.4107 26.0136 92.1726 26.1773 91.9345 26.3387C91.7011 26.4952 91.4654 26.6566 91.2273 26.8227C90.6939 27.2213 90.3986 27.6412 90.3415 28.0825Z" fill="#134E49" fill-opacity="0.4"/>
</g>
</svg>
