<svg width="225" height="40" viewBox="0 0 225 40" fill="none" xmlns="http://www.w3.org/2000/svg">
<g id="logo">
<path d="M73.5153 14.1687C70.9935 14.1687 68.8392 14.9016 67.3619 15.9086V19.5105C68.6844 18.5036 70.7771 17.6781 72.7767 17.6781C75.2686 17.6781 76.4065 18.9608 76.4065 20.7007V22.1666C75.237 21.6169 73.6683 21.1893 72.0064 21.1893C67.9458 21.1893 65.7915 23.6621 65.7915 26.5015C65.7915 29.524 68.192 31.7822 71.514 31.7822C73.6982 31.7822 75.6678 30.7439 76.8057 28.9132L77.2664 31.3564H80.4653V20.3045C80.4653 16.6415 77.9734 14.1687 73.5118 14.1687H73.5153ZM76.4065 25.067C76.4065 27.0512 74.5916 28.456 72.5305 28.456C70.7771 28.456 69.6393 27.4491 69.6393 26.135C69.6393 24.8209 70.6241 23.6936 72.9613 23.6936C74.2223 23.6936 75.5148 24.0286 76.4065 24.5487V25.067Z" fill="#262929"/>
<path d="M92.9198 14.1687C90.5809 14.1687 88.7977 15.4199 87.8128 16.9766H87.7214L87.2606 14.5648H83.9685V31.3547H88.2138V21.3115C88.2138 19.3883 89.6295 18.0149 91.5675 18.0149C93.5055 18.0149 94.6433 19.1143 94.6433 21.4336V31.3547H98.8886V20.151C98.8886 16.4565 96.6112 14.1669 92.9198 14.1669V14.1687Z" fill="#262929"/>
<path d="M198.53 24.6097C198.53 26.5329 197.114 27.9063 195.176 27.9063C193.238 27.9063 192.1 26.8069 192.1 24.4876V14.5666H187.855V25.7703C187.855 29.4647 190.132 31.7543 193.824 31.7543C196.163 31.7543 197.946 30.503 198.931 28.9464H199.022L199.483 31.3581H202.775V14.5683H198.53V24.6115V24.6097Z" fill="#262929"/>
<path d="M149.887 14.1687C147.365 14.1687 145.21 14.9016 143.733 15.9086V19.5105C145.056 18.5036 147.148 17.6781 149.148 17.6781C151.64 17.6781 152.778 18.9608 152.778 20.7007V22.1666C151.608 21.6169 150.04 21.1893 148.378 21.1893C144.317 21.1893 142.163 23.6621 142.163 26.5015C142.163 29.524 144.563 31.7822 147.885 31.7822C150.069 31.7822 152.039 30.7439 153.177 28.9132L153.638 31.3564H156.837V20.3045C156.837 16.6415 154.345 14.1687 149.883 14.1687H149.887ZM152.78 25.067C152.78 27.0512 150.965 28.456 148.904 28.456C147.15 28.456 146.012 27.4491 146.012 26.135C146.012 24.8209 146.997 23.6936 149.334 23.6936C150.595 23.6936 151.888 24.0286 152.78 24.5487V25.067Z" fill="#262929"/>
<path d="M172.434 17.1616C171.358 15.3292 169.296 14.1704 166.989 14.1704C163.02 14.1704 159.39 17.5891 159.39 22.9623C159.39 28.3356 163.081 31.7857 167.019 31.7857C169.449 31.7857 171.511 30.5344 172.68 28.6113L173.111 31.3581H176.679V6.8723H172.434V17.1616ZM168.127 27.9377C165.573 27.9377 163.665 25.861 163.665 22.9623C163.665 20.0637 165.573 17.987 168.127 17.987C170.68 17.987 172.495 20.0323 172.495 22.9623C172.495 25.8924 170.619 27.9377 168.127 27.9377Z" fill="#262929"/>
<path d="M184.545 14.5666H180.3V31.3564H184.545V14.5666Z" fill="#262929"/>
<path d="M182.423 7.08695C181.069 7.08695 180.022 8.1253 180.022 9.43763C180.022 10.75 181.069 11.7586 182.423 11.7586C183.777 11.7586 184.792 10.7517 184.792 9.43763C184.792 8.12356 183.745 7.08695 182.423 7.08695Z" fill="#262929"/>
<path d="M212.806 21.3429C210.745 20.7932 209.637 20.3656 209.637 19.2976C209.637 18.2906 210.59 17.6484 212.314 17.6484C214.252 17.6484 216.221 18.3203 217.421 19.2051V15.5107C216.16 14.687 214.129 14.1669 212.161 14.1669C208.007 14.1669 205.515 16.3658 205.515 19.3866C205.515 22.4074 208.007 23.4475 210.745 24.2101C213.021 24.882 214.345 25.2781 214.345 26.47C214.345 27.5695 213.269 28.271 211.361 28.271C208.9 28.271 206.961 27.2937 205.577 26.0722V30.072C207.084 31.14 209.176 31.7822 211.545 31.7822C215.914 31.7822 218.467 29.6758 218.467 26.4404C218.467 22.9606 215.515 22.0444 212.806 21.3429Z" fill="#262929"/>
<path d="M64.1102 15.7864C64.1102 10.6208 59.9845 8.61219 55.4034 8.61219H48.543V31.3564H52.8498V22.9606H53.8751L60.083 31.3564H65.1584L58.451 22.6255C61.6658 21.8664 64.1102 19.7618 64.1102 15.7864ZM52.8516 12.5213H55.1941C57.9797 12.5213 59.7418 13.5753 59.7418 16.1197C59.7418 18.6641 57.9797 19.7182 55.1941 19.7182H52.8516V12.5213Z" fill="#262929"/>
<path d="M140.482 15.7864C140.482 10.6208 136.356 8.61219 131.775 8.61219H124.914V31.3564H129.221V22.9606H130.246L136.454 31.3564H141.53L134.822 22.6255C138.037 21.8664 140.482 19.7618 140.482 15.7864ZM129.221 12.5213H131.564C134.349 12.5213 136.111 13.5753 136.111 16.1197C136.111 18.6641 134.349 19.7182 131.564 19.7182H129.221V12.5213Z" fill="#262929"/>
<path d="M117.563 14.5666H112.456L106.619 21.2277V6.8723H102.374V31.3564H106.619V27.0808L108.603 24.8122L113.443 31.3564H118.518L111.206 21.8367L117.563 14.5666Z" fill="#262929"/>
<path d="M221.54 6.59308C219.967 6.59308 218.689 7.86179 218.689 9.42193C218.689 10.9821 219.967 12.2508 221.54 12.2508C223.112 12.2508 224.39 10.9821 224.39 9.42193C224.39 7.86179 223.112 6.59308 221.54 6.59308ZM221.54 11.7831C220.228 11.7831 219.16 10.7238 219.16 9.42193C219.16 8.12006 220.228 7.06077 221.54 7.06077C222.851 7.06077 223.919 8.12006 223.919 9.42193C223.919 10.7238 222.851 11.7831 221.54 11.7831Z" fill="#262929"/>
<path d="M222.579 8.84429C222.579 8.21954 222.109 7.91763 221.466 7.91763H220.602V10.9262H221.091V9.76572H221.269L222.125 10.9262H222.714L221.795 9.72907C222.262 9.62785 222.579 9.33118 222.579 8.84255V8.84429ZM221.091 8.36264H221.438C221.81 8.36264 222.086 8.51446 222.086 8.86349C222.086 9.21251 221.81 9.37655 221.438 9.37655H221.091V8.36089V8.36264Z" fill="#262929"/>
<path d="M24.1915 19.2173C23.634 19.9887 23.0783 20.6972 22.5612 21.3254C22.5683 21.4162 22.5718 21.5087 22.5718 21.6012C22.5718 23.8052 20.7639 25.5992 18.5428 25.5992C16.3217 25.5992 14.5121 23.8052 14.5121 21.6012C14.5121 21.5087 14.5156 21.4144 14.5226 21.3237C14.0038 20.6954 13.4499 19.9869 12.8924 19.2156C12.5758 19.9485 12.4017 20.7565 12.4017 21.6012C12.4017 24.9605 15.1557 27.6934 18.5428 27.6934C21.9299 27.6934 24.6821 24.9605 24.6821 21.6012C24.6821 20.7565 24.508 19.9503 24.1915 19.2173Z" fill="#00C6B7"/>
<path d="M27.605 13.2978C27.3095 14.0046 26.9771 14.6974 26.6166 15.3728C27.9672 17.0952 28.7727 19.2557 28.7727 21.6012C28.7727 27.1978 24.1827 31.7525 18.5428 31.7525C12.9029 31.7525 8.31121 27.1978 8.31121 21.6012C8.31121 19.2557 9.11665 17.0952 10.469 15.3728C10.1085 14.6974 9.77437 14.0029 9.48068 13.2961C7.44597 15.4793 6.20087 18.3988 6.20087 21.6012C6.20087 28.353 11.737 33.8467 18.5428 33.8467C25.3487 33.8467 30.883 28.353 30.883 21.6012C30.883 18.3988 29.6397 15.481 27.605 13.2978Z" fill="#00C6B7"/>
<path d="M28.7533 6.24929C28.8237 6.72746 28.8588 7.21609 28.8588 7.71345C28.8588 8.09738 28.8377 8.48305 28.7973 8.87047C32.5607 11.8599 34.9735 16.4565 34.9735 21.6012C34.9735 30.592 27.6014 37.9059 18.5428 37.9059C9.4842 37.9059 2.11034 30.592 2.11034 21.6012C2.11034 16.4565 4.52315 11.8599 8.28658 8.87047C8.24614 8.48305 8.22503 8.09738 8.22503 7.71345C8.22503 7.21609 8.26021 6.72746 8.33055 6.24929C3.31323 9.54583 0 15.1965 0 21.6012C0 31.7456 8.31824 40 18.5428 40C28.7674 40 37.0839 31.7456 37.0839 21.6012C37.0839 15.1965 33.7689 9.54583 28.7533 6.24929Z" fill="#00C6B7"/>
<path d="M26.5093 7.34523C26.4407 6.40286 26.2051 5.50587 25.8323 4.68391C24.5837 1.92313 21.7892 0 18.5428 0C15.2964 0 12.4985 1.92313 11.2498 4.68566C10.8788 5.50761 10.6431 6.40461 10.5745 7.34523C10.5605 7.53719 10.5534 7.73265 10.5534 7.9281C10.5534 9.17063 10.8295 10.4498 11.278 11.708C11.5172 12.3799 11.8056 13.0448 12.1274 13.6975C12.7482 14.9522 13.4938 16.1546 14.2536 17.2436C14.6791 17.8526 15.11 18.4268 15.525 18.9538C17.1482 21.0165 18.5428 22.369 18.5428 22.369C18.5428 22.369 19.9374 21.0165 21.5588 18.9538C21.9756 18.4268 22.4047 17.8544 22.8303 17.2453C23.59 16.1564 24.3374 14.954 24.9565 13.6975C25.2801 13.0448 25.5685 12.3799 25.8076 11.708C26.2561 10.4498 26.5304 9.17063 26.5304 7.9281C26.5304 7.73265 26.5234 7.53719 26.5093 7.34523ZM23.5988 7.39235L21.1544 9.36608L21.23 9.64705L21.8578 11.996L21.9633 12.3886C22.0829 12.8389 21.5835 13.1984 21.1895 12.9471L18.5428 11.2491L18.2245 11.4533H18.2227L15.8943 12.9471C15.5004 13.1984 15.001 12.8389 15.1206 12.3886L15.2261 11.996L15.8539 9.64705L15.9295 9.36608L13.485 7.39235C13.121 7.09742 13.3127 6.51455 13.7805 6.48837L16.9284 6.3191L18.0645 3.40125C18.0961 3.32097 18.1419 3.25466 18.1999 3.20405C18.3898 3.03303 18.6941 3.03303 18.884 3.20405C18.942 3.25466 18.9877 3.32097 19.0194 3.40125L20.1572 6.3191L23.3034 6.48837C23.7712 6.51455 23.9629 7.09742 23.5988 7.39235Z" fill="#262929"/>
</g>
</svg>
