<svg width="152" height="32" viewBox="0 0 152 32" fill="none" xmlns="http://www.w3.org/2000/svg">
<g id="Vector">
<path d="M0.587297 15.0606C0.668003 14.4045 0.748708 13.6664 0.910119 13.0103C2.1207 7.59753 5.18751 3.743 10.1913 1.6107C18.5846 -1.9978 28.0272 2.51283 30.9326 11.288C31.4168 12.7643 31.7396 14.3225 31.6589 16.0447C27.3008 15.8807 22.9427 16.2087 18.6653 17.0288C14.3879 17.849 10.1913 19.0791 6.15598 20.8014C14.4686 18.259 22.9427 16.8648 31.6589 17.1109C24.4761 17.849 17.5355 19.5712 10.9176 22.6056C17.6162 20.3093 24.4761 18.8331 31.5782 18.259C31.4168 18.9971 31.3361 19.6532 31.1747 20.3093C23.0234 20.3913 15.195 22.0315 7.68938 25.148C15.195 22.8517 22.862 21.5395 30.7712 21.3755C30.2869 22.7696 29.722 23.9178 28.9956 25.066C26.5745 28.5925 23.2655 30.8888 19.0689 31.7089C11.2404 33.2671 3.81552 28.5925 1.39435 21.2934C0.990825 20.1453 0.910119 18.9151 0.587297 17.6849C0.587297 17.6029 0.506592 17.4389 0.506592 17.3569C0.587297 16.6188 0.587297 15.7987 0.587297 15.0606ZM15.9213 16.3728C16.4863 16.4548 16.9705 16.4548 17.4548 16.4548C17.5355 16.4548 17.6969 16.2907 17.6969 16.2087C18.2618 14.8966 18.8267 13.5844 19.3917 12.3542C19.5531 12.1082 19.4724 11.9441 19.2303 11.7801C18.6653 11.288 18.1004 10.796 17.6162 10.3039C17.5355 10.2219 17.4548 9.97587 17.4548 9.81184C17.5355 9.31977 17.6969 8.90972 17.7776 8.49966C17.8583 8.25363 17.939 8.17161 18.1811 8.17161C18.8267 8.17161 19.3917 8.0896 20.0373 8.0896C20.9251 8.00759 20.9251 8.00759 20.9251 7.10547C20.9251 7.10547 20.9251 7.02345 20.8444 7.02345C19.8759 7.02345 18.9074 7.02345 17.8583 7.02345C17.939 6.53139 17.939 6.03932 18.0197 5.46524C16.0021 5.79328 14.0651 6.12133 12.1282 6.36736C12.3703 7.43351 12.6124 8.49966 12.7738 9.4838C13.1774 9.40179 13.5809 9.40179 13.9844 9.31977C13.9037 8.74569 13.7423 8.17161 13.6616 7.51552C14.0651 7.51552 14.4686 7.43351 14.8722 7.43351C14.8722 7.59753 14.8722 7.67955 14.7915 7.76156C14.6301 8.49966 14.4686 9.23776 14.2265 9.89385C14.1458 10.2219 14.1458 10.3859 14.4686 10.5499C15.5178 11.042 16.3249 11.6981 17.2126 12.4362C17.4548 12.6002 17.4548 12.7643 17.2933 13.0103C17.0512 13.5024 16.8091 13.9944 16.6477 14.4865C16.4863 15.1426 16.2442 15.7167 15.9213 16.3728ZM14.2265 10.878C14.1458 11.206 14.0651 11.4521 13.9844 11.6981C13.9037 11.9441 13.823 12.0262 13.5809 12.1082C12.7738 12.1902 11.9668 12.3542 11.1597 12.5182C10.6755 12.6002 10.1105 12.6822 9.54561 12.7643C9.78773 13.0923 9.94914 13.4203 10.1105 13.6664C10.1913 13.9124 10.3527 13.9944 10.5948 13.9124C11.644 13.7484 12.6931 13.6664 13.7423 13.5024C15.2757 13.3383 15.2757 13.2563 15.5178 12.0262C15.5178 11.9441 15.5985 11.9441 15.5178 11.9441C15.5178 11.8621 15.4371 11.6981 15.4371 11.6981C15.1143 11.3701 14.7108 11.206 14.2265 10.878ZM17.0512 1.52869C16.1635 1.52869 15.4371 2.26679 15.4371 3.16892C15.4371 4.07104 16.1635 4.80915 17.0512 4.80915C17.939 4.80915 18.6653 4.07104 18.6653 3.16892C18.6653 2.3488 17.939 1.52869 17.0512 1.52869Z" fill="#134E49" fill-opacity="0.4"/>
<path d="M67.9764 16.2087C66.8465 16.2087 65.6359 16.2087 64.5061 16.2087C64.8289 15.9627 64.7482 15.7167 64.6675 15.3886C64.1832 14.0764 63.699 12.8463 63.2148 11.5341C63.1341 11.288 62.9727 11.206 62.7305 11.206C61.6814 11.206 60.6322 11.206 59.583 11.206C59.3409 11.206 59.1795 11.206 59.0988 11.4521C58.776 12.5182 58.3724 13.5844 58.0496 14.6505C57.8882 14.8966 57.8882 15.0606 57.8882 15.2246C57.8075 15.7987 57.8882 15.9627 58.5339 16.0447C58.6146 16.0447 58.776 16.1267 58.8567 16.2087C56.4355 16.2907 53.9336 16.3728 51.5932 16.1267C51.5932 15.7167 51.6739 15.4706 51.6739 15.1426C51.4318 12.3542 51.1897 9.4838 50.9475 6.69541C50.9475 6.6134 50.9475 6.53139 50.7861 6.44937C49.2527 9.72983 47.7193 13.0103 46.1859 16.2907C46.1052 16.2907 46.0245 16.2907 46.0245 16.2907C44.3297 13.1743 42.7963 9.89385 41.2629 6.6134C41.1822 7.51552 41.1015 8.41765 41.0208 9.31977C40.8593 11.206 40.6979 13.0103 40.5365 14.8966C40.5365 14.9786 40.5365 15.1426 40.5365 15.2246C40.5365 15.7167 40.6979 15.9627 41.2629 16.0447C41.4243 16.0447 41.5857 16.1267 41.7471 16.1267V16.2087C40.5365 16.2087 39.4066 16.2087 38.1961 16.2087V16.1267C38.2768 16.1267 38.4382 16.0447 38.5996 16.0447C39.2452 15.9627 39.4066 15.7987 39.4874 15.1426C39.5681 14.4045 39.6488 13.6664 39.7295 12.9283C40.0523 9.72983 40.4558 6.53139 40.7786 3.33294C40.7786 3.16892 40.9401 3.08691 41.0208 2.92288C40.9401 3.08691 41.1015 3.16892 41.1822 3.33294C42.7963 6.77742 44.4911 10.1399 46.1052 13.5844C46.1859 13.7484 46.2666 13.8304 46.3473 14.0764C48.1228 10.3039 49.7369 6.6134 51.5125 2.92288C51.5932 2.92288 51.5932 2.92288 51.6739 2.92288C51.7546 3.08691 51.7546 3.16892 51.8353 3.33294C52.1581 5.87529 52.4002 8.49966 52.6423 11.042C52.7231 12.1082 52.8845 13.2563 52.9652 14.3225C53.2073 15.7987 53.6108 15.9627 55.1442 16.0447C56.1127 16.0447 56.6776 15.5526 57.0005 14.6505C58.2917 10.96 59.6637 7.26949 60.955 3.57897C61.0357 3.33294 61.1164 3.16892 61.2778 2.92288C61.3585 2.92288 61.3585 2.92288 61.4393 2.92288C61.52 3.16892 61.6814 3.33294 61.7621 3.57897C62.9727 6.69541 64.1832 9.89385 65.3131 13.0103C65.5552 13.6664 65.7973 14.2405 66.1202 14.8966C66.443 15.5526 66.9272 16.0447 67.7343 16.0447C67.7343 16.0447 67.8957 16.1267 67.9764 16.2087ZM61.1164 5.62926C61.0357 5.62926 61.0357 5.62926 60.955 5.62926C60.4708 7.26949 59.9058 8.90972 59.3409 10.5499C60.4708 10.5499 61.6007 10.5499 62.7305 10.5499C62.2463 8.90972 61.6814 7.26949 61.1164 5.62926Z" fill="#134E49" fill-opacity="0.4"/>
<path d="M71.7696 10.714C71.8503 12.2722 71.8503 13.7484 71.931 15.3066C71.931 15.7987 72.2538 15.9627 72.738 16.0447C72.9801 16.0447 73.2223 16.1267 73.4644 16.1267C73.4644 16.2087 73.4644 16.2087 73.4644 16.2907C72.0924 16.2907 70.6397 16.2907 69.2677 16.2907V16.2087C69.4291 16.2087 69.5905 16.1267 69.6712 16.1267C69.994 16.1267 70.2362 15.8807 70.3169 15.5526C70.3976 15.3066 70.3976 14.9786 70.3976 14.7325C70.3976 11.3701 70.3976 8.00759 70.3976 4.64512C70.3976 3.82501 70.1554 3.57897 69.3484 3.49696C69.2677 3.49696 69.1063 3.49696 69.0256 3.41495V3.33294C69.1063 3.33294 69.187 3.25093 69.3484 3.25093C70.9625 3.25093 72.4959 3.25093 74.11 3.25093C75.1592 3.25093 76.2084 3.57897 76.9347 4.4811C77.7418 5.54725 77.7418 6.77742 77.2575 7.92558C76.9347 8.82771 76.2891 9.56581 75.5627 10.3039C76.3698 11.288 77.0961 12.3542 77.9032 13.2563C78.3874 13.9124 78.9523 14.4865 79.5173 15.0606C79.7594 15.3066 80.1629 15.5526 80.4858 15.7167C80.8893 15.9627 81.2121 15.8807 81.4542 15.4706C81.6963 15.1426 81.9385 14.7325 82.0999 14.3225C83.3912 10.796 84.6824 7.18748 85.9737 3.66099C86.0544 3.41495 86.2158 3.16892 86.2965 2.92288C86.3773 2.92288 86.3773 2.92288 86.458 2.92288C86.5387 3.16892 86.7001 3.33294 86.7808 3.57897C88.0721 7.02345 89.4441 10.5499 90.7354 13.9944C90.8161 14.3225 90.9775 14.5685 91.1389 14.8966C91.4617 15.5526 91.9459 16.0447 92.753 16.0447C92.8337 16.0447 92.9144 16.1267 92.9951 16.2087C91.8652 16.2087 90.7354 16.2087 89.5248 16.2087C89.8476 15.8807 89.6862 15.6347 89.6055 15.3066C89.1212 14.0764 88.637 12.8463 88.2335 11.5341C88.1528 11.288 87.9914 11.124 87.6685 11.206C86.6194 11.206 85.5702 11.206 84.521 11.206C84.3596 11.206 84.1175 11.288 84.1175 11.4521C83.714 12.6002 83.3104 13.8304 82.9876 14.9786C82.7455 15.7987 82.9069 15.9627 83.714 16.0447C83.7947 16.0447 83.7947 16.0447 83.8754 16.2087C83.7947 16.2087 83.6333 16.2907 83.5526 16.2907C82.2613 16.2907 81.0507 16.2907 79.7594 16.2907C79.0331 16.2907 78.3067 16.0447 77.9032 15.4706C77.0154 14.4045 76.1277 13.3383 75.3206 12.1082C74.675 11.124 74.0293 10.4679 72.738 10.714C72.3345 10.796 72.0924 10.714 71.7696 10.714ZM71.7696 6.85943C71.7696 7.76156 71.7696 8.58167 71.7696 9.4838C71.7696 9.81184 71.931 10.0579 72.2538 10.0579C72.738 10.1399 73.2223 10.2219 73.7065 10.2219C74.8364 10.2219 75.482 9.72983 75.8048 8.58167C76.0469 7.67955 76.0469 6.69541 75.8048 5.79328C75.482 4.72713 74.8364 4.07104 73.7872 3.82501C73.303 3.743 72.8187 3.82501 72.3345 3.82501C72.0117 3.82501 71.8503 3.98903 71.8503 4.31708C71.8503 5.13719 71.7696 6.03932 71.7696 6.85943ZM84.2789 10.5499C85.4895 10.5499 86.5387 10.5499 87.6685 10.5499C87.1036 8.90972 86.5387 7.26949 85.9737 5.62926C85.893 5.62926 85.893 5.62926 85.8123 5.62926C85.3281 7.26949 84.7631 8.82771 84.2789 10.5499Z" fill="#134E49" fill-opacity="0.4"/>
<path d="M107.361 9.31977C107.361 9.4838 107.361 9.56581 107.361 9.72983C107.361 11.3701 107.361 13.0103 107.441 14.6505C107.441 14.8145 107.441 15.0606 107.522 15.2246C107.603 15.7167 107.764 15.8807 108.329 15.9627C108.571 15.9627 108.813 16.0447 109.055 16.0447C109.055 16.1267 109.055 16.1267 109.055 16.2087C107.603 16.2087 106.231 16.2087 104.778 16.2087V16.1267C104.94 16.1267 105.02 16.0447 105.182 16.0447C105.585 16.0447 105.827 15.7987 105.908 15.3886C105.989 14.6505 106.069 13.9124 106.069 13.1743C106.069 10.632 106.069 8.0896 106.069 5.54725C106.069 5.2192 106.069 4.80915 105.989 4.4811C105.908 3.82501 105.666 3.66099 105.101 3.57897C104.94 3.57897 104.778 3.49696 104.617 3.49696C104.617 3.41495 104.617 3.41495 104.617 3.33294C105.989 3.33294 107.361 3.33294 108.733 3.33294V3.41495C108.571 3.41495 108.41 3.49696 108.248 3.49696C107.926 3.57897 107.603 3.743 107.603 4.07104C107.603 5.62926 107.603 7.10547 107.603 8.66368C110.024 8.66368 112.445 8.66368 114.947 8.66368C114.947 8.25363 114.947 7.92558 114.947 7.51552C114.947 6.44937 114.947 5.46524 114.866 4.39909C114.866 3.743 114.624 3.49696 113.898 3.41495C113.736 3.41495 113.575 3.33294 113.414 3.33294C113.414 3.25093 113.414 3.25093 113.414 3.16892C114.786 3.16892 116.158 3.16892 117.53 3.16892V3.25093C117.449 3.25093 117.368 3.33294 117.207 3.33294C116.561 3.41495 116.4 3.57897 116.319 4.31708C116.319 4.64512 116.319 4.97317 116.319 5.30121C116.319 8.17161 116.319 10.96 116.319 13.8304C116.319 14.2405 116.319 14.6505 116.4 15.0606C116.48 15.7167 116.642 15.8807 117.287 15.9627C117.53 15.9627 117.691 16.0447 117.933 16.0447C117.933 16.1267 117.933 16.1267 117.933 16.2087C116.561 16.2087 115.108 16.2087 113.736 16.2087V16.1267C113.817 16.1267 113.979 16.0447 114.059 16.0447C114.543 16.0447 114.786 15.7987 114.786 15.3066C114.866 14.6505 114.947 13.9944 114.947 13.2563C114.947 12.1082 114.947 10.878 114.947 9.72983C114.947 9.4838 114.947 9.31977 114.624 9.31977C112.122 9.31977 109.782 9.31977 107.361 9.31977Z" fill="#134E49" fill-opacity="0.4"/>
<path d="M136.576 2.92288C139.885 6.53139 143.194 10.2219 146.584 13.9124C146.584 13.0923 146.584 12.3542 146.584 11.5341C146.503 9.40179 146.503 7.18748 146.422 5.05518C146.422 4.97317 146.422 4.80915 146.422 4.72713C146.341 3.743 146.18 3.57897 145.212 3.49696C145.05 3.49696 144.969 3.49696 144.808 3.41495C144.808 3.33294 144.808 3.33294 144.808 3.25093C146.099 3.25093 147.31 3.25093 148.601 3.25093V3.33294C148.52 3.33294 148.359 3.41495 148.278 3.41495C147.633 3.49696 147.471 3.743 147.391 4.31708C147.391 4.56311 147.391 4.72713 147.391 4.97317C147.391 8.41765 147.391 11.8621 147.391 15.2246C147.391 15.5526 147.391 15.9627 147.391 16.2907C147.31 16.2907 147.31 16.3728 147.229 16.3728C147.068 16.2087 146.826 16.0447 146.664 15.8807C144.485 13.5844 142.306 11.288 140.127 8.90972C139.159 7.84357 138.19 6.77742 137.141 5.54725C137.141 5.79328 137.141 5.95731 137.141 6.12133C137.222 8.74569 137.302 11.288 137.383 13.9124C137.383 14.2405 137.383 14.5685 137.464 14.8966C137.545 15.5526 137.787 15.7987 138.432 15.8807C138.594 15.8807 138.755 15.9627 138.997 15.9627V16.0447C137.706 16.0447 136.334 16.0447 135.043 16.0447V15.9627C135.204 15.9627 135.365 15.8807 135.527 15.8807C136.092 15.7987 136.253 15.6347 136.334 15.0606C136.415 14.6505 136.415 14.2405 136.415 13.8304C136.415 10.3859 136.415 6.94144 136.415 3.57897C136.415 3.33294 136.495 3.16892 136.495 2.92288C136.495 2.92288 136.495 2.92288 136.576 2.92288Z" fill="#134E49" fill-opacity="0.4"/>
<path d="M133.267 8.90972C133.267 12.6822 131.492 15.3886 128.586 16.2087C126.004 16.9468 123.582 16.7008 121.646 14.5685C119.789 12.5182 119.305 10.0579 120.193 7.43351C121.081 4.89116 122.856 3.33294 125.519 3.00489C126.972 2.84087 128.344 3.00489 129.635 3.57897C132.218 4.72713 133.267 6.77742 133.267 8.90972ZM131.653 10.3859C131.653 8.49966 131.33 7.02345 130.442 5.71127C129.151 3.90702 127.456 3.25093 125.358 3.66099C123.34 4.07104 122.211 5.30121 121.726 7.26949C121.323 8.99173 121.403 10.714 122.049 12.3542C122.372 13.2563 122.937 14.0764 123.744 14.7325C126.165 16.7828 130.362 16.1267 131.33 12.3542C131.572 11.5341 131.572 10.796 131.653 10.3859Z" fill="#134E49" fill-opacity="0.4"/>
<path d="M112.607 20.5553C112.687 20.4733 112.687 20.4733 112.768 20.4733C114.221 20.4733 115.593 20.3913 116.965 20.5553C118.498 20.7194 119.144 22.1956 118.498 23.5898C118.256 24.1638 117.772 24.7379 117.368 25.312C117.691 25.7221 118.095 26.2961 118.498 26.7882C119.063 27.4443 119.547 28.1004 120.193 28.6745C120.839 29.3306 121.323 29.1665 121.646 28.2644C122.614 25.8861 123.502 23.4257 124.47 20.9654C124.551 20.7194 124.712 20.4733 124.793 20.1453C124.874 20.1453 124.874 20.1453 124.954 20.1453C125.035 20.3093 125.197 20.4733 125.197 20.6374C126.084 22.9337 127.053 25.148 127.941 27.4443C128.021 27.6903 128.183 27.9364 128.263 28.2644C128.506 28.7565 128.828 29.0845 129.393 29.0845C129.474 29.0845 129.474 29.0845 129.555 29.2486C128.748 29.2486 127.941 29.2486 127.134 29.2486C127.134 29.0025 127.134 28.7565 127.134 28.5925C126.891 27.8544 126.569 27.1163 126.246 26.3782C126.165 26.1321 126.084 26.0501 125.762 26.0501C125.035 26.0501 124.228 26.0501 123.502 26.0501C123.26 26.0501 123.179 26.1321 123.098 26.3782C122.856 26.9522 122.695 27.6083 122.453 28.1824C122.21 28.9205 122.291 29.0025 123.018 29.2486C122.775 29.2486 122.695 29.3306 122.533 29.3306C121.807 29.3306 121.081 29.3306 120.354 29.3306C119.547 29.3306 118.902 29.0845 118.337 28.4284C117.691 27.6083 117.045 26.7882 116.48 26.0501C116.238 25.8041 116.077 25.64 115.673 25.64C115.27 25.64 114.866 25.64 114.543 25.64C114.543 26.6242 114.543 27.6903 114.543 28.6745C114.543 28.8385 114.866 29.0025 115.028 29.0845C115.189 29.1665 115.431 29.1665 115.593 29.2486C114.624 29.2486 113.656 29.2486 112.607 29.2486C113.494 29.0845 113.333 28.3464 113.414 27.7723C113.414 25.7221 113.414 23.6718 113.414 21.6215C113.414 20.8834 113.333 20.8014 112.607 20.7194C112.768 20.6374 112.768 20.6374 112.607 20.5553ZM114.705 22.9337C114.705 23.2617 114.705 23.5077 114.705 23.8358C114.705 25.148 114.705 25.148 115.996 25.148C116.965 25.148 117.449 24.7379 117.61 23.7538C117.61 23.5898 117.691 23.5078 117.691 23.3437C117.772 22.1956 117.207 21.2114 116.238 20.9654C115.835 20.8834 115.431 20.9654 115.028 20.8834C114.786 20.8834 114.624 21.0474 114.705 21.2934C114.705 21.8675 114.705 22.3596 114.705 22.9337ZM126.084 25.558C125.681 24.4099 125.277 23.2617 124.874 22.1956H124.793C124.39 23.2617 124.067 24.4099 123.663 25.558C124.39 25.558 125.197 25.558 126.084 25.558Z" fill="#134E49" fill-opacity="0.4"/>
<path d="M81.5349 20.3913C81.5349 20.9654 81.5349 21.4575 81.5349 21.9495H81.4542C81.4542 21.8675 81.3735 21.7855 81.3735 21.6215C81.2928 21.2114 81.0507 20.8834 80.6472 20.8014C80.1629 20.7194 79.598 20.6374 79.1138 20.7194C78.1453 20.8834 77.7418 21.9495 78.3874 22.7696C78.7102 23.1797 79.1138 23.4257 79.5173 23.7538C80.0822 24.2459 80.7279 24.6559 81.2121 25.148C81.9385 25.8861 82.1806 26.7882 81.777 27.6903C81.4542 28.5925 80.7279 29.1665 79.7594 29.2486C79.1945 29.3306 78.6295 29.3306 78.1453 29.2486C77.4189 29.0845 76.7733 29.1665 76.1277 29.1665C75.3206 29.1665 74.6749 28.9205 74.1907 28.2644C73.5451 27.4443 72.8994 26.6242 72.3345 25.8041C72.1731 25.558 71.931 25.394 71.6081 25.394C71.2046 25.394 70.8011 25.394 70.3976 25.394C70.3976 26.3782 70.3976 27.2803 70.3976 28.1824C70.3976 28.6745 70.6397 28.9205 71.1239 28.9205C71.2046 28.9205 71.366 29.0025 71.4467 29.0845C70.4783 29.0845 69.5098 29.0845 68.5413 29.0845V29.0025C69.1063 29.0025 69.2677 28.5925 69.2677 28.0184C69.2677 25.8861 69.3484 23.6718 69.3484 21.5395C69.3484 20.7194 69.2677 20.7194 68.2185 20.3913C68.4606 20.3093 68.5413 20.3093 68.622 20.3093C69.8326 20.3093 70.9625 20.3093 72.1731 20.3093C72.738 20.3093 73.303 20.4733 73.7065 20.8834C74.5135 21.5395 74.675 22.6876 74.0293 23.7538C73.7065 24.2459 73.3837 24.6559 72.8994 25.23C73.8679 26.2961 74.8364 27.4443 75.8048 28.5104C76.0469 28.7565 76.5312 28.8385 76.9347 29.0845C76.9347 28.3464 77.0154 27.7723 77.0154 27.1983C77.0961 27.1983 77.0961 27.1983 77.1768 27.1983C77.1768 27.2803 77.2575 27.3623 77.2575 27.4443C77.2575 28.1004 77.6611 28.5925 78.226 28.7565C78.7102 28.9205 79.2752 28.9205 79.8401 28.8385C80.97 28.5925 81.3735 27.2803 80.6472 26.3782C80.3243 26.0501 80.0015 25.8041 79.598 25.476C79.0331 24.984 78.4681 24.5739 77.9032 23.9998C77.2575 23.3437 77.0154 22.5236 77.4189 21.6215C77.7418 20.7194 78.4681 20.3093 79.3559 20.3093C80.0822 20.3093 80.8086 20.3913 81.5349 20.3913ZM71.4467 25.148C72.6573 25.23 73.0608 24.4919 73.1416 23.5898C73.1416 23.3437 73.1416 23.0977 73.1416 22.8517C73.0608 21.5395 72.1731 20.7194 70.8818 20.8834C70.7204 20.8834 70.6397 20.8834 70.4783 20.8834C70.2362 20.8834 70.1554 21.0474 70.1554 21.2934C70.1554 22.1956 70.1554 23.0157 70.1554 23.9178C70.2362 25.148 70.2362 25.148 71.4467 25.148Z" fill="#134E49" fill-opacity="0.4"/>
<path d="M95.7391 27.2803C96.7076 28.1004 97.8374 29.0025 99.2094 29.2486C98.4024 29.2486 97.5953 29.4126 96.869 29.2486C96.1426 29.0845 95.497 28.5104 94.7706 28.1824C94.125 28.8385 93.3179 29.3306 92.3495 29.4946C91.4617 29.6586 90.4932 29.6586 89.6862 29.1665C87.9914 28.1824 87.6685 25.9681 88.8791 24.4099C89.202 23.9998 89.6862 23.5898 90.0897 23.2617C89.9283 22.8517 89.6862 22.3596 89.6055 21.8675C89.3634 20.5553 90.2511 19.3252 91.6231 18.9151C92.3495 18.7511 93.1565 18.7511 93.8829 18.9971C94.2057 19.0791 94.2864 19.2432 94.2864 19.5712C94.2057 20.1453 94.2057 20.6374 94.2057 21.2114C94.125 21.2114 94.125 21.2114 94.0443 21.2114C94.0443 21.1294 93.9636 21.0474 93.9636 20.9654C93.9636 20.1453 93.56 19.5712 92.753 19.3252C92.1073 19.0791 91.4617 19.1611 90.9775 19.7352C90.4125 20.3093 90.3318 21.0474 90.5739 21.7035C90.6546 22.0315 90.8161 22.3596 90.9775 22.6056C92.1073 24.2459 93.6407 25.6401 95.0935 27.0342C95.5777 26.2961 95.8198 25.476 95.7391 24.5739C95.7391 24.2459 95.497 23.9998 95.0935 23.9178C94.932 23.9178 94.8513 23.8358 94.6899 23.8358V23.7538C95.0935 23.7538 95.4163 23.7538 95.8198 23.7538C96.7883 23.8358 96.9497 23.9178 96.6269 24.9019C96.5462 25.64 96.1426 26.3782 95.7391 27.2803ZM90.4125 23.5898C89.5248 24.2459 89.1212 25.312 89.3634 26.4602C89.6055 27.6903 90.4125 28.5104 91.5424 28.7565C92.6723 28.9205 93.6408 28.5925 94.4478 27.8544C93.1565 26.3782 91.7845 24.984 90.4125 23.5898Z" fill="#134E49" fill-opacity="0.4"/>
<path d="M99.3708 16.2087C97.9988 16.2087 96.5461 16.2087 95.1741 16.2087V16.1267C95.3356 16.1267 95.4163 16.0447 95.5777 16.0447C95.9812 16.0447 96.2233 15.7987 96.2233 15.3886C96.304 14.5685 96.3847 13.7484 96.3847 12.9283C96.3847 10.0579 96.3847 7.18748 96.3847 4.31708C96.3847 4.23507 96.3847 4.07104 96.3847 3.98903C95.497 3.98903 94.6899 3.98903 93.8022 3.98903C93.6407 3.98903 93.3986 3.98903 93.2372 3.98903C92.5916 3.98903 92.1073 4.23507 91.8652 4.89116C91.7845 5.05518 91.7038 5.13719 91.6231 5.2192C91.6231 4.39909 91.7845 3.66099 92.0266 3.08691C92.8337 3.16892 93.4793 3.25093 94.2057 3.25093C96.5461 3.25093 98.8059 3.25093 101.146 3.25093C101.55 3.25093 101.953 3.16892 102.357 3.08691C102.357 3.82501 102.357 4.64512 102.357 5.38323C102.276 5.38323 102.276 5.38323 102.196 5.38323C102.196 5.30121 102.115 5.2192 102.115 5.05518C102.115 4.56311 101.792 4.23507 101.308 4.15305C100.904 4.07104 100.501 3.98903 100.097 3.98903C99.3708 3.98903 98.6445 3.98903 97.8374 3.98903C97.8374 4.15305 97.8374 4.23507 97.8374 4.39909C97.8374 7.67955 97.8374 10.878 97.8374 14.1584C97.8374 14.4865 97.8374 14.8966 97.9181 15.2246C97.9988 15.7167 98.241 15.9627 98.7252 16.0447C98.9673 16.0447 99.2094 16.1267 99.4515 16.1267C99.3708 16.1267 99.3708 16.2087 99.3708 16.2087Z" fill="#134E49" fill-opacity="0.4"/>
<path d="M51.7546 20.3093C52.8038 20.3093 53.7722 20.5553 54.66 21.2114C56.4355 22.4416 56.9197 25.066 55.7899 27.1983C54.8214 28.9205 52.9652 29.8226 50.8668 29.4946C48.5264 29.1665 46.9123 27.2803 46.993 24.9019C46.993 22.1956 49.0913 20.2273 51.7546 20.3093ZM48.2035 23.9998C48.2035 25.8861 48.6071 26.9522 49.3334 27.7723C50.9475 29.5766 53.9336 29.2485 54.8214 27.1163C55.467 25.64 55.3863 24.0818 54.7407 22.6876C53.7722 20.6374 51.0282 20.0633 49.4141 21.5395C48.4457 22.3596 48.2035 23.4257 48.2035 23.9998Z" fill="#134E49" fill-opacity="0.4"/>
<path d="M57.6461 20.4733C58.6146 20.4733 59.583 20.4733 60.5515 20.4733C60.5515 20.5553 60.4708 20.5553 60.4708 20.5553C59.7444 20.8014 59.7444 20.8014 59.7444 21.6215C59.7444 23.3437 59.7444 24.984 59.8251 26.7062C59.9866 28.4284 61.52 29.4126 63.1341 28.8385C64.1832 28.5105 64.7482 27.6903 64.8289 26.6242C64.9096 24.8199 64.9096 23.0157 64.9096 21.2114C64.9096 20.8014 64.7482 20.6374 64.3447 20.6374C64.1832 20.6374 64.1025 20.6374 64.0218 20.4733C64.9096 20.4733 65.7166 20.4733 66.6044 20.4733C66.6044 20.5553 66.6044 20.5553 66.6044 20.5553C65.8781 20.7194 65.8781 20.8014 65.8781 21.5395C65.8781 23.0977 65.8781 24.6559 65.7974 26.1321C65.6359 28.7565 63.699 29.5766 61.7621 29.3306C59.8251 29.1665 58.8567 28.0184 58.776 25.9681C58.776 24.7379 58.776 23.4257 58.776 22.1956C58.776 22.0315 58.776 21.8675 58.776 21.7855C58.6146 20.8834 58.6146 20.8834 57.6461 20.4733Z" fill="#134E49" fill-opacity="0.4"/>
<path d="M37.5504 20.4733C37.7118 19.8992 37.7925 19.3252 37.8732 18.8331C40.6979 19.0791 43.3612 18.9971 46.0245 18.9151C46.0245 19.4892 46.0245 20.0633 46.0245 20.6374H45.9438C45.9438 20.5553 45.8631 20.5553 45.8631 20.4733C45.7017 19.8172 45.621 19.5712 44.8946 19.5712C44.0876 19.4892 43.2805 19.5712 42.4735 19.5712C42.4735 19.6532 42.4735 19.8172 42.4735 19.9813C42.4735 22.2776 42.4735 24.6559 42.4735 26.9522C42.4735 27.3623 42.4735 27.7723 42.5542 28.1824C42.6349 28.8385 42.7156 29.0025 43.4419 29.0845C43.5226 29.0845 43.684 29.0845 43.7647 29.2486C42.6349 29.2486 41.505 29.2486 40.3751 29.2486C40.3751 29.1665 40.3751 29.1665 40.4558 29.1665C41.2629 28.9205 41.2629 28.9205 41.2629 28.1004C41.3436 25.394 41.3436 22.6876 41.3436 19.9813C41.3436 19.8172 41.3436 19.7352 41.3436 19.5712C40.3751 19.5712 39.4874 19.5712 38.5996 19.5712C38.3575 19.5712 38.1154 19.8992 37.9539 20.0633C37.8732 20.1453 37.7925 20.3093 37.7118 20.4733C37.6311 20.4733 37.5504 20.4733 37.5504 20.4733Z" fill="#134E49" fill-opacity="0.4"/>
<path d="M109.055 29.2486C107.926 29.2486 106.796 29.2486 105.747 29.2486C105.747 29.2486 105.747 29.1665 105.666 29.1665H105.747C106.473 29.0025 106.554 28.9205 106.554 28.1824C106.554 25.312 106.634 22.5236 106.634 19.6532C106.634 19.5712 106.634 19.5712 106.634 19.4892C105.747 19.4892 104.859 19.4892 103.971 19.4892C103.568 19.4892 103.325 19.7352 103.164 20.0633C103.083 20.1453 103.003 20.3093 103.003 20.3913C102.922 20.3913 102.922 20.3913 102.841 20.3093C103.003 19.7352 103.083 19.1611 103.164 18.6691C105.989 18.9151 108.652 18.8331 111.315 18.7511C111.315 19.3252 111.315 19.8992 111.315 20.6374C111.235 20.4733 111.154 20.4733 111.154 20.4733C110.912 19.6532 110.75 19.4892 109.943 19.4892C109.217 19.4892 108.491 19.4892 107.764 19.4892V19.5712C107.764 22.2776 107.764 24.984 107.764 27.6903C107.764 27.7723 107.764 27.8544 107.764 27.9364C107.845 29.0845 108.006 29.0025 108.813 29.0845C108.894 29.0845 108.894 29.0845 108.975 29.1665C109.055 29.2486 109.055 29.2486 109.055 29.2486Z" fill="#134E49" fill-opacity="0.4"/>
<path d="M132.944 27.6903C133.348 26.7062 133.751 25.7221 134.155 24.7379C134.558 23.6718 134.962 22.5236 135.365 21.4575C135.527 20.9654 135.527 20.6374 134.881 20.7194C134.881 20.7194 134.801 20.6374 134.72 20.5553C135.608 20.5553 136.415 20.5553 137.302 20.5553C137.302 20.6374 137.302 20.6374 137.302 20.6374C136.576 20.7194 136.334 21.2114 136.011 21.7855C135.043 24.1638 133.993 26.5422 132.944 28.9205C132.864 29.1665 132.702 29.3306 132.541 29.6586C132.379 29.3306 132.218 29.1665 132.137 28.9205C131.169 26.6242 130.281 24.3279 129.313 22.1136C129.313 22.0315 129.232 21.9495 129.232 21.8675C128.99 21.2114 128.667 20.6374 127.779 20.7194C127.779 20.6374 127.779 20.6374 127.86 20.5553C128.909 20.5553 129.878 20.5553 130.927 20.5553V20.6374C130.2 20.8014 130.2 20.8014 130.523 21.5395C131.33 23.5898 132.057 25.64 132.864 27.6903C132.944 27.6903 132.944 27.6903 132.944 27.6903Z" fill="#134E49" fill-opacity="0.4"/>
<path d="M143.113 24.0818C143.033 24.6559 142.952 25.23 142.952 25.8041C142.871 25.8041 142.871 25.7221 142.871 25.7221C142.71 24.984 142.629 24.984 141.903 24.9019C141.338 24.9019 140.853 24.9019 140.289 24.9019C140.289 25.9681 140.289 27.0342 140.289 28.1004C140.289 28.5104 140.531 28.7565 140.934 28.7565C141.418 28.7565 141.983 28.7565 142.468 28.7565C143.033 28.7565 143.275 28.5104 143.436 27.9364C143.436 27.8544 143.517 27.7723 143.597 27.6903C143.678 28.1824 143.597 28.6745 143.436 29.0845C143.436 29.1665 143.194 29.2486 143.113 29.2486C141.58 29.2486 140.046 29.2486 138.594 29.2486C138.513 29.2486 138.513 29.2486 138.432 29.1665C139.401 29.0845 139.239 28.4284 139.239 27.8544C139.239 25.8041 139.239 23.7538 139.239 21.7035C139.239 20.8834 139.239 20.8014 138.352 20.6374C138.352 20.6374 138.271 20.5553 138.271 20.4733C139.966 20.4733 141.661 20.4733 143.355 20.4733C143.275 20.8834 143.275 21.3755 143.194 21.8675C143.113 21.8675 143.033 21.8675 143.033 21.7855C142.871 21.0474 142.79 20.9654 141.983 20.9654C141.418 20.9654 140.853 20.9654 140.289 20.9654C140.289 22.1136 140.289 23.1797 140.289 24.3279C141.257 24.3279 142.225 24.5739 143.113 24.0818Z" fill="#134E49" fill-opacity="0.4"/>
<path d="M151.507 27.6903C151.426 28.1824 151.426 28.5925 151.264 29.0845C151.264 29.2486 150.942 29.3306 150.78 29.3306C149.812 29.3306 148.924 29.3306 147.956 29.3306C147.391 29.3306 146.826 29.3306 146.261 29.3306C146.099 29.3306 146.019 29.3306 145.857 29.3306C145.857 29.2486 145.857 29.1665 145.857 29.1665C146.503 29.0845 146.584 28.6745 146.584 28.1824C146.584 26.7882 146.584 25.312 146.664 23.9178C146.664 23.1797 146.664 22.3596 146.664 21.6215C146.664 20.8834 146.584 20.6374 145.857 20.6374C145.777 20.6374 145.777 20.5553 145.696 20.4733C146.664 20.4733 147.633 20.4733 148.682 20.4733V20.5553C148.601 20.5553 148.601 20.6374 148.52 20.6374C147.794 20.7194 147.713 20.8014 147.713 21.5395C147.713 23.4257 147.713 25.312 147.713 27.1163C147.713 27.3623 147.713 27.6903 147.794 27.9364C147.875 28.5104 148.036 28.6745 148.601 28.7565C149.085 28.7565 149.65 28.7565 150.135 28.7565C150.7 28.7565 151.022 28.4284 151.184 27.8544C151.184 27.7723 151.264 27.6903 151.264 27.6083C151.426 27.6903 151.426 27.6903 151.507 27.6903Z" fill="#134E49" fill-opacity="0.4"/>
</g>
</svg>
