<svg width="27" height="27" viewBox="0 0 27 27" fill="none" xmlns="http://www.w3.org/2000/svg">
<path d="M12 20H14.6667V14.6667H20V12H14.6667V6.66667H12V12H6.66667V14.6667H12V20ZM13.3333 26.6667C11.4889 26.6667 9.75556 26.3164 8.13334 25.616C6.51111 24.9156 5.1 23.9658 3.9 22.7667C2.7 21.5676 1.75022 20.1564 1.05067 18.5333C0.351113 16.9102 0.000890577 15.1769 1.68776e-06 13.3333C-0.000887201 11.4898 0.349335 9.75645 1.05067 8.13334C1.752 6.51022 2.70178 5.09911 3.9 3.9C5.09822 2.70089 6.50934 1.75111 8.13334 1.05067C9.75734 0.350222 11.4907 0 13.3333 0C15.176 0 16.9093 0.350222 18.5333 1.05067C20.1573 1.75111 21.5684 2.70089 22.7667 3.9C23.9649 5.09911 24.9151 6.51022 25.6173 8.13334C26.3196 9.75645 26.6693 11.4898 26.6667 13.3333C26.664 15.1769 26.3138 16.9102 25.616 18.5333C24.9182 20.1564 23.9684 21.5676 22.7667 22.7667C21.5649 23.9658 20.1538 24.916 18.5333 25.6173C16.9129 26.3187 15.1796 26.6684 13.3333 26.6667ZM13.3333 24C16.3111 24 18.8333 22.9667 20.9 20.9C22.9667 18.8333 24 16.3111 24 13.3333C24 10.3556 22.9667 7.83333 20.9 5.76667C18.8333 3.7 16.3111 2.66667 13.3333 2.66667C10.3556 2.66667 7.83333 3.7 5.76667 5.76667C3.7 7.83333 2.66667 10.3556 2.66667 13.3333C2.66667 16.3111 3.7 18.8333 5.76667 20.9C7.83333 22.9667 10.3556 24 13.3333 24Z" fill="#00C6B7"/>
</svg>
