<svg width="81" height="17" viewBox="0 0 81 17" fill="none" xmlns="http://www.w3.org/2000/svg">
<g id="Layer_1" clip-path="url(#clip0_433_8705)">
<g id="Group">
<g id="Layer 1">
<g id="Group_2">
<g id="Group_3">
<path id="Vector" d="M24.2637 10.8493C24.5566 11.0454 24.9329 11.1441 25.3925 11.1441C25.8521 11.1441 26.1787 11.0764 26.4333 10.941C26.6872 10.8056 26.8142 10.6114 26.8142 10.359C26.8142 10.1724 26.7554 10.0319 26.6383 9.9383C26.5213 9.84468 26.3553 9.77699 26.1397 9.7346C25.9248 9.69285 25.573 9.6435 25.0843 9.5872C24.4197 9.50306 23.8676 9.39552 23.4278 9.26457C22.9881 9.13362 22.6363 8.92802 22.3724 8.64778C22.1086 8.36753 21.977 7.99365 21.977 7.52616C21.977 7.05866 22.1112 6.64493 22.3804 6.28497C22.6488 5.92502 23.0277 5.6473 23.5164 5.45056C24.0051 5.25382 24.5665 5.15576 25.202 5.15576C26.2283 5.16525 27.0562 5.37528 27.6864 5.78648C28.3166 6.19767 28.6565 6.76829 28.7055 7.49706H26.7415C26.7124 7.2263 26.5629 7.00362 26.2944 6.83092C26.026 6.65821 25.6814 6.57155 25.2609 6.57155C24.8701 6.57155 24.5546 6.64176 24.3152 6.7822C24.0759 6.92264 23.9562 7.10926 23.9562 7.3427C23.9562 7.51097 24.0197 7.6375 24.1466 7.721C24.2736 7.80514 24.4396 7.86587 24.6452 7.90319C24.8509 7.94052 25.1921 7.9829 25.6715 8.02971C26.6879 8.14169 27.4669 8.34982 28.0091 8.65347C28.5514 8.95712 28.8225 9.47839 28.8225 10.2173C28.8225 10.6848 28.6783 11.096 28.39 11.4509C28.1017 11.8064 27.701 12.0797 27.1885 12.2714C26.6753 12.4631 26.0822 12.5586 25.4077 12.5586C24.3622 12.5586 23.5118 12.3365 22.8571 11.8924C22.2025 11.4483 21.8553 10.8429 21.8163 10.0768H23.7803C23.8094 10.3944 23.9707 10.6519 24.2637 10.848V10.8493Z" fill="#333333"/>
<path id="Vector_2" d="M31.5258 5.64054C32.0978 5.33689 32.7597 5.18506 33.5116 5.18506C34.2635 5.18506 34.9459 5.3274 35.5272 5.6127C36.1084 5.89738 36.5627 6.29972 36.8901 6.81846C37.2174 7.3372 37.386 7.94704 37.3959 8.64797C37.3959 8.90038 37.3761 9.12496 37.3371 9.32107H31.8703V9.37737C31.9193 9.90117 32.0952 10.3124 32.398 10.611C32.7009 10.9102 33.1162 11.0595 33.6439 11.0595C34.0638 11.0595 34.4136 10.9728 34.692 10.8001C34.9704 10.6274 35.1536 10.3725 35.2415 10.0359H37.2789C37.2009 10.5129 37.0104 10.9425 36.7076 11.3258C36.4047 11.7092 36.004 12.0103 35.5054 12.2304C35.0068 12.45 34.4354 12.56 33.7907 12.56C32.9502 12.56 32.2248 12.4107 31.6137 12.1115C31.0034 11.8123 30.5339 11.3846 30.2065 10.8286C29.8792 10.2725 29.7159 9.62536 29.7159 8.88647C29.7159 8.14758 29.8746 7.4865 30.192 6.93043C30.5094 6.37437 30.9545 5.94419 31.5258 5.64054ZM34.7647 7.01457C34.4572 6.77608 34.0684 6.65714 33.5996 6.65714C33.1307 6.65714 32.7716 6.78114 32.4635 7.02849C32.156 7.27584 31.9728 7.61049 31.914 8.03118H35.3288C35.2607 7.59151 35.0722 7.25306 34.7647 7.01457Z" fill="#333333"/>
<path id="Vector_3" d="M38.7218 10.8072C38.3945 10.2461 38.2311 9.60146 38.2311 8.87206C38.2311 8.14266 38.3951 7.49803 38.7218 6.9369C39.0491 6.37641 39.5134 5.9437 40.1145 5.64005C40.7156 5.3364 41.4119 5.18457 42.2034 5.18457C42.995 5.18457 43.6913 5.3364 44.2924 5.64005C44.8935 5.9437 45.3577 6.37641 45.685 6.9369C46.0124 7.49803 46.1764 8.14266 46.1764 8.87206C46.1764 9.60146 46.0124 10.2581 45.685 10.8142C45.3577 11.3702 44.8935 11.8004 44.2924 12.1041C43.6913 12.4077 42.995 12.5596 42.2034 12.5596C41.4119 12.5596 40.7156 12.4077 40.1145 12.1041C39.5134 11.8004 39.0491 11.3677 38.7218 10.8072ZM44.0788 8.87206C44.0788 8.25526 43.9102 7.75487 43.5729 7.37151C43.2357 6.98814 42.7787 6.79646 42.2021 6.79646C41.6255 6.79646 41.1837 6.98814 40.8465 7.37151C40.5092 7.75487 40.3406 8.25526 40.3406 8.87206C40.3406 9.48886 40.5092 9.98925 40.8465 10.3726C41.1837 10.756 41.6354 10.9477 42.2021 10.9477C42.7688 10.9477 43.2357 10.756 43.5729 10.3726C43.9102 9.98925 44.0788 9.48886 44.0788 8.87206Z" fill="#333333"/>
<path id="Vector_4" d="M54.8517 12.4758H53.049L52.844 11.48C52.2674 12.1999 51.4858 12.5599 50.4991 12.5599C49.8346 12.5599 49.2387 12.4081 48.711 12.1044C48.1833 11.8008 47.7707 11.368 47.4725 10.8076C47.1742 10.2464 47.0255 9.59674 47.0255 8.85848C47.0255 8.12022 47.1742 7.48635 47.4725 6.93028C47.7707 6.37422 48.186 5.94404 48.7183 5.64039C49.2506 5.33673 49.8491 5.18491 50.5137 5.18491C51.4911 5.18491 52.2482 5.51197 52.7858 6.16672V2.66016H54.8523V12.4758H54.8517ZM52.8143 8.88632C52.8143 8.26003 52.6483 7.75521 52.3163 7.37184C51.9837 6.98848 51.5393 6.7968 50.9825 6.7968C50.4257 6.7968 49.9781 6.98848 49.6415 7.37184C49.3042 7.75521 49.1356 8.2556 49.1356 8.8724C49.1356 9.48919 49.3042 9.98959 49.6415 10.373C49.9781 10.7563 50.4257 10.948 50.9825 10.948C51.5393 10.948 51.9837 10.7588 52.3163 10.3799C52.6483 10.0016 52.8143 9.50374 52.8143 8.88632Z" fill="#333333"/>
<path id="Vector_5" d="M58.5158 3.37577C58.5158 3.69397 58.4034 3.9603 58.1785 4.17539C57.9537 4.39048 57.67 4.49802 57.3281 4.49802C56.9863 4.49802 56.6999 4.39048 56.4705 4.17539C56.241 3.9603 56.1259 3.69397 56.1259 3.37577C56.1259 3.05756 56.2403 2.79377 56.4705 2.58374C56.6999 2.37308 56.9863 2.26807 57.3281 2.26807C57.67 2.26807 57.9537 2.37308 58.1785 2.58374C58.4034 2.7944 58.5158 3.0582 58.5158 3.37577ZM58.3544 5.26854V12.4759H56.288V5.26854H58.3544Z" fill="#333333"/>
<path id="Vector_6" d="M66.8849 12.4759H65.0525L64.8621 11.6067C64.5982 11.9059 64.2907 12.1393 63.9383 12.3076C63.5865 12.4759 63.1566 12.56 62.6488 12.56C61.7693 12.56 61.0511 12.3007 60.4943 11.7819C59.9375 11.2632 59.6591 10.3959 59.6591 9.18125V5.26919H61.7256V8.94276C61.7256 9.59688 61.8453 10.0903 62.0847 10.4218C62.3241 10.7539 62.6931 10.9197 63.191 10.9197C63.689 10.9197 64.1095 10.7349 64.3926 10.3655C64.6756 9.99606 64.8178 9.47985 64.8178 8.81624V5.26855H66.8843V12.4759H66.8849Z" fill="#333333"/>
<path id="Vector_7" d="M80.119 8.52223V12.4906H78.0526V8.45201C78.0526 7.35822 77.6174 6.81165 76.7479 6.81165C76.2982 6.81165 75.9365 6.96347 75.6634 7.26713C75.3896 7.57078 75.2527 7.994 75.2527 8.53614V12.4906H73.1862V8.45201C73.1862 7.35822 72.7465 6.81165 71.867 6.81165C71.4173 6.81165 71.0582 6.9679 70.7898 7.28104C70.5213 7.59419 70.387 8.0174 70.387 8.55006V12.49H68.3206V5.26871H70.1232L70.3136 6.16638C70.5676 5.85767 70.8704 5.61981 71.2222 5.45153C71.574 5.28326 72.0138 5.19469 72.5415 5.1852C73.6161 5.1852 74.364 5.59197 74.7839 6.40488C75.0576 6.01203 75.4167 5.7109 75.8611 5.50024C76.3055 5.29022 76.8113 5.18457 77.3781 5.18457C78.1894 5.18457 78.8487 5.44141 79.3566 5.95572C79.8645 6.47004 80.1184 7.32533 80.1184 8.52159L80.119 8.52223Z" fill="#333333"/>
</g>
<g id="Group_4">
<path id="Vector_8" d="M6.13216 14.3557C5.65075 13.8913 5.10916 13.358 4.56824 12.8121L7.32444 10.0552C6.02834 11.3931 5.57668 12.1839 6.13216 14.3557Z" fill="#FF66A3"/>
<path id="Vector_9" d="M11.6201 2.64502C13.0002 3.9754 14.8808 5.88905 15.8357 6.98347C17.1874 8.53273 17.2257 10.5862 15.8827 12.1405C14.736 13.4677 13.4346 14.683 12.1081 15.8514C11.6743 16.2335 10.9515 16.4878 10.3544 16.4998H0.881622L9.61841 7.75968C11.5202 5.85299 12.2767 5.22038 11.6201 2.64502Z" fill="#FF0066"/>
<path id="Vector_10" d="M13.1833 4.18876C12.6424 3.64344 12.1008 3.10826 11.6194 2.64518C12.1762 4.82263 11.7206 5.6115 10.4172 6.95516L8.13251 9.24016C7.83494 9.53875 7.56448 9.80697 7.32377 10.055C6.57454 10.8274 6.10768 11.4176 5.95493 12.1982C5.91393 12.4038 5.89475 12.6221 5.89938 12.8619C5.90533 13.2832 5.98204 13.7697 6.13149 14.3554C5.65008 13.8911 5.1085 13.3578 4.56757 12.8119C3.55317 11.7915 2.53745 10.73 1.91519 10.017C0.563543 8.46647 0.525189 6.41302 1.86824 4.85932C3.01489 3.53211 4.31563 2.31686 5.64281 1.14843C6.07594 0.765697 6.79938 0.51202 7.39651 0.5H16.87L13.1833 4.18876Z" fill="#5934D5"/>
<path id="Vector_11" d="M5.90003 12.8613C5.90598 13.2826 5.98269 13.7691 6.13214 14.3549C5.9655 13.84 5.89408 13.3427 5.90003 12.8613Z" fill="#FF66A3"/>
<g id="Vector_12" style="mix-blend-mode:multiply" opacity="0.5">
<path d="M10.4172 6.95534L8.13251 9.24033C7.83493 9.53893 7.56447 9.80715 7.32377 10.0551C6.57454 10.8276 6.10768 11.4178 5.95493 12.1984C6.19034 8.82724 12.5445 6.32147 11.6188 2.646C12.1756 4.82344 11.7199 5.61231 10.4166 6.95598L10.4172 6.95534Z" fill="#FF0066"/>
</g>
</g>
</g>
</g>
</g>
</g>
<defs>
<clipPath id="clip0_433_8705">
<rect width="79.2381" height="16" fill="white" transform="translate(0.880951 0.5)"/>
</clipPath>
</defs>
</svg>
